<?xml version="1.0" encoding="UTF-8"?>
<svg width="232px" height="325px" viewBox="0 0 232 325" version="1.1" xmlns="http://www.w3.org/2000/svg" xmlns:xlink="http://www.w3.org/1999/xlink">
    <!-- Generator: Sketch 44.1 (41455) - http://www.bohemiancoding.com/sketch -->
    <title>Slice</title>
    <desc>Created with Sketch.</desc>
    <defs></defs>
    <g id="Page-1" stroke="none" stroke-width="1" fill="none" fill-rule="evenodd">
        <path d="M64,11.5445984 C66.4872965,66.1055835 93.1002327,102.989796 126.269124,116.457798 C150.895271,126.457078 162.81793,149.129138 162.002345,186.783453 L183,186.783453 C183.98129,141.478829 166.922437,111.378961 133.793376,97.9271308 C109.207059,87.9440241 90.1689535,59.1224567 88,11.5445984 L64,11.5445984 Z" id="Path" fill="#752461" fill-rule="nonzero"></path>
        <path d="M47,187.249275 L115,109 C112.333333,97 108,92 102,94 C96,96 73,123.333333 33,176 L47,187.249275 Z" id="Path-2" fill="#752461"></path>
        <circle id="Oval" fill="#563C61" cx="60.5" cy="84.5" r="16.5"></circle>
        <circle id="Oval" fill="#563C61" cx="129.5" cy="66.5" r="16.5"></circle>
        <path d="M94.9368291,151.357774 C112.592211,162.119695 128.655082,161.963851 142.032104,150.525527 L136.117844,143.60885 C125.94735,152.305359 114.163671,152.419686 99.6734705,143.587116 L94.9368291,151.357774 Z" id="Path-3" fill="#563C61" fill-rule="nonzero" transform="translate(118.484467, 151.428991) rotate(-9.000000) translate(-118.484467, -151.428991) "></path>
        <path d="M75.54,313.04 C75.139998,313.680003 74.7200022,314.279997 74.28,314.84 C73.8399978,315.400003 73.3000032,315.879998 72.66,316.28 L62.58,316.28 L60.3,314.72 C59.6599968,315.120002 59.0000034,315.399999 58.32,315.56 C57.6399966,315.720001 56.900004,315.84 56.1,315.92 C55.0599948,316.080001 53.940006,315.940002 52.74,315.5 C51.539994,315.059998 50.4200052,314.520003 49.38,313.88 C48.8999976,313.399998 48.5800008,312.880003 48.42,312.32 C47.3799948,311.599996 46.5400032,310.880004 45.9,310.16 C45.2599968,309.439996 44.6800026,308.680004 44.16,307.88 C43.6399974,307.079996 43.1200026,306.220005 42.6,305.3 C42.0799974,304.379995 41.4600036,303.400005 40.74,302.36 C39.2999928,300.43999 37.9000068,298.50001 36.54,296.54 C35.1799932,294.57999 34.300002,292.720009 33.9,290.96 C34.300002,290.479998 34.8799962,290.080002 35.64,289.76 C36.4000038,289.439998 37.0999968,289.040002 37.74,288.56 C37.0999968,288.239998 36.280005,288.239998 35.28,288.56 C34.279995,288.880002 33.380004,289.119999 32.58,289.28 L29.94,289.64 C30.1000008,290.040002 30.3399984,290.439998 30.66,290.84 C30.9800016,291.240002 31.14,291.639998 31.14,292.04 C31.14,292.440002 30.9800016,292.859998 30.66,293.3 C30.3399984,293.740002 29.980002,294.159998 29.58,294.56 C29.58,295.200003 30.0999948,295.52 31.14,295.52 L31.14,298.4 C31.14,298.880002 31.0600008,299.219999 30.9,299.42 C30.7399992,299.620001 30.5800008,299.799999 30.42,299.96 C30.3399996,300.520003 30.399999,301.079997 30.6,301.64 C30.800001,302.200003 30.9799992,302.799997 31.14,303.44 L29.94,305.24 C30.1800012,305.480001 30.399999,305.679999 30.6,305.84 C30.800001,306.000001 30.9799992,306.199999 31.14,306.44 L31.14,313.04 C30.6599976,314.000005 30.0600036,314.559999 29.34,314.72 C28.6199964,314.880001 27.5000076,315.159998 25.98,315.56 L23.1,314.72 L17.82,316.28 L12.42,316.28 C12.019998,315.959998 11.5000032,315.600002 10.86,315.2 C10.2199968,314.799998 9.600003,314.340003 9,313.82 C8.399997,313.299997 7.900002,312.740003 7.5,312.14 C7.099998,311.539997 6.9,310.920003 6.9,310.28 C6.9,309.879998 7.0199988,309.420003 7.26,308.9 C7.5000012,308.379997 7.6599996,307.840003 7.74,307.28 C7.9000008,307.2 8.1399984,307.16 8.46,307.16 C8.7800016,307.16 9.0199992,307.040001 9.18,306.8 C8.6999976,306.239997 8.260002,305.640003 7.86,305 C7.459998,304.359997 7.26,303.760003 7.26,303.2 C7.26,302.639997 7.5399972,302.240001 8.1,302 C8.6600028,301.759999 9.139998,301.440002 9.54,301.04 C9.54,300.799999 9.3800016,300.540001 9.06,300.26 C8.7399984,299.979999 8.380002,299.760001 7.98,299.6 L7.98,297.32 C7.98,296.839998 7.9000008,296.480001 7.74,296.24 C7.5799992,295.999999 7.4200008,295.680002 7.26,295.28 C7.4200008,295.119999 7.6799982,294.920001 8.04,294.68 C8.4000018,294.439999 8.6599992,294.240001 8.82,294.08 C8.82,293.679998 8.6800014,293.320002 8.4,293 C8.1199986,292.679998 7.98,292.280002 7.98,291.8 L7.98,289.88 L7.26,286.28 C7.660002,286.119999 8.0799978,286 8.52,285.92 C8.9600022,285.84 9.2999988,285.720001 9.54,285.56 C9.6200004,285.319999 9.5000016,285.060001 9.18,284.78 C8.8599984,284.499999 8.500002,284.160002 8.1,283.76 C7.9399992,283.199997 8.059998,282.520004 8.46,281.72 C8.3799996,281.559999 8.2200012,281.380001 7.98,281.18 C7.7399988,280.979999 7.5800004,280.800001 7.5,280.64 C7.6600008,280.479999 7.7000004,280.220002 7.62,279.86 C7.5399996,279.499998 7.5,279.120002 7.5,278.72 C7.5,278.559999 7.5799992,278.300002 7.74,277.94 C7.9000008,277.579998 7.9400004,277.200002 7.86,276.8 C7.6999992,276.639999 7.5000012,276.420001 7.26,276.14 C7.0199988,275.859999 6.9,275.480002 6.9,275 C6.9,274.599998 7.0799982,274.120003 7.44,273.56 C7.8000018,272.999997 8.0199996,272.520002 8.1,272.12 C8.0199996,271.959999 7.9200006,271.84 7.8,271.76 C7.6799994,271.68 7.62,271.400002 7.62,270.92 L7.62,265.64 C7.62,265.239998 7.719999,264.900001 7.92,264.62 C8.120001,264.339999 8.419998,264.000002 8.82,263.6 L7.26,261.68 C7.4200008,261.519999 7.6599984,261.340001 7.98,261.14 C8.3000016,260.939999 8.5799988,260.760001 8.82,260.6 C8.5799988,260.199998 8.260002,259.760002 7.86,259.28 C7.459998,258.799998 7.26,258.320002 7.26,257.84 C7.26,257.359998 7.3799988,257.1 7.62,257.06 C7.8600012,257.02 7.98,256.760002 7.98,256.28 L7.98,253.88 C8.380002,253.479998 8.8399974,253.180001 9.36,252.98 C9.8800026,252.779999 10.339998,252.360003 10.74,251.72 C10.339998,251.559999 9.8800026,251.559999 9.36,251.72 C8.8399974,251.880001 8.2600032,252.039999 7.62,252.2 L7.62,242.48 C7.62,242.079998 7.7599986,241.760001 8.04,241.52 C8.3200014,241.279999 8.5799988,240.960002 8.82,240.56 L6.9,237.08 L6.9,232.76 C6.9800004,232.519999 7.219998,232.240002 7.62,231.92 C8.020002,231.599998 8.3799984,231.260002 8.7,230.9 C9.0200016,230.539998 9.18,230.160002 9.18,229.76 C9.18,229.359998 8.9000028,228.960002 8.34,228.56 C8.5800012,228.399999 8.7399996,228.200001 8.82,227.96 C8.9000004,227.719999 9.0599988,227.520001 9.3,227.36 C9.8600028,227.039998 10.4599968,226.800001 11.1,226.64 C11.7400032,226.479999 12.2999976,226.4 12.78,226.4 C13.180002,226.4 13.6399974,226.599998 14.16,227 C14.6800026,227.400002 15.2199972,227.6 15.78,227.6 C16.180002,227.6 16.6599972,227.380002 17.22,226.94 C17.7800028,226.499998 18.259998,226.200001 18.66,226.04 C19.060002,226.200001 19.3799988,226.459998 19.62,226.82 C19.8600012,227.180002 20.179998,227.559998 20.58,227.96 C20.8200012,228.04 21.0999984,227.900002 21.42,227.54 C21.7400016,227.179998 22.099998,226.800002 22.5,226.4 C22.6600008,226.640001 22.9199982,226.859999 23.28,227.06 C23.6400018,227.260001 23.8999992,227.439999 24.06,227.6 C24.2200008,227.6 24.4199988,227.460001 24.66,227.18 C24.9000012,226.899999 25.02,226.680001 25.02,226.52 L32.46,226.52 C32.9400024,226.44 33.2999988,226.599998 33.54,227 C33.7800012,227.400002 34.1399976,227.6 34.62,227.6 C35.1000024,227.6 35.34,227.480001 35.34,227.24 C35.34,226.999999 35.5799976,226.88 36.06,226.88 L39.42,226.88 C39.9000024,226.88 40.1999994,226.800001 40.32,226.64 C40.4400006,226.479999 40.6199988,226.479999 40.86,226.64 C41.1800016,226.64 41.4999984,226.719999 41.82,226.88 C42.1400016,227.040001 42.4399986,227.179999 42.72,227.3 C43.0000014,227.420001 43.2999984,227.48 43.62,227.48 C43.9400016,227.48 44.2199988,227.280002 44.46,226.88 L46.26,228.32 C46.5000012,228.159999 46.6599996,228.000001 46.74,227.84 C46.8200004,227.679999 47.0999976,227.6 47.58,227.6 C47.980002,227.6 48.4199976,227.859997 48.9,228.38 C49.3800024,228.900003 49.9399968,229.16 50.58,229.16 C51.0600024,229.16 51.5399976,229.100001 52.02,228.98 C52.5000024,228.859999 53.2199952,228.8 54.18,228.8 C54.580002,228.960001 54.8999988,229.279998 55.14,229.76 C55.3800012,230.240002 55.5799992,230.679998 55.74,231.08 C55.9000008,231.08 56.0999988,230.940001 56.34,230.66 C56.5800012,230.379999 56.9399976,230.24 57.42,230.24 C58.1400036,230.24 59.0199948,230.539997 60.06,231.14 C61.1000052,231.740003 62.1599946,232.479996 63.24,233.36 C64.3200054,234.240004 65.359995,235.179995 66.36,236.18 C67.360005,237.180005 68.1799968,238.079996 68.82,238.88 C69.4600032,239.760004 70.0999968,241.139991 70.74,243.02 C71.3800032,244.900009 71.899998,246.639992 72.3,248.24 C72.3,248.400001 72.1800012,248.639998 71.94,248.96 C71.6999988,249.280002 71.6199996,249.639998 71.7,250.04 C72.0200016,250.360002 72.5399964,250.639999 73.26,250.88 C73.9800036,251.120001 74.34,251.799994 74.34,252.92 C74.34,253.800004 74.3999994,254.459998 74.52,254.9 C74.6400006,255.340002 74.7,255.799998 74.7,256.28 C74.7,256.760002 74.4200028,257.119999 73.86,257.36 C73.2999972,257.600001 72.820002,257.919998 72.42,258.32 C72.820002,258.720002 73.2399978,259.099998 73.68,259.46 C74.1200022,259.820002 74.34,260.119999 74.34,260.36 L72.78,265.64 C72.6199992,266.760006 72.1800036,268.159992 71.46,269.84 C70.7399964,271.520008 69.980004,273.039993 69.18,274.4 C68.8599984,274.640001 68.5400016,274.919998 68.22,275.24 C67.9799988,275.480001 67.760001,275.739999 67.56,276.02 C67.359999,276.300001 67.26,276.559999 67.26,276.8 C67.0999992,276.960001 66.820002,277.099999 66.42,277.22 C66.019998,277.340001 65.7400008,277.599998 65.58,278 L65.1,279.2 C64.9399992,279.600002 64.660002,279.959998 64.26,280.28 C63.859998,280.520001 63.3800028,280.699999 62.82,280.82 C62.2599972,280.940001 61.7000028,281.119999 61.14,281.36 C60.739998,281.520001 60.3200022,281.859997 59.88,282.38 C59.4399978,282.900003 58.9800024,283.16 58.5,283.16 C58.0199976,283.16 57.7400004,283.080001 57.66,282.92 C57.5799996,282.759999 57.4600008,282.68 57.3,282.68 C57.0599988,283.320003 56.7800016,283.759999 56.46,284 C56.1399984,284.240001 55.8400014,284.459999 55.56,284.66 C55.2799986,284.860001 54.9600018,285.039999 54.6,285.2 C54.2399982,285.360001 53.860002,285.679998 53.46,286.16 C53.46,286.480002 53.6799978,286.799998 54.12,287.12 C54.5600022,287.440002 55.0599972,287.799998 55.62,288.2 C55.8600012,288.600002 55.9600002,288.999998 55.92,289.4 C55.8799998,289.800002 55.86,290.199998 55.86,290.6 C56.5800036,291.160003 57.4199952,291.679998 58.38,292.16 C59.3400048,292.640002 60.219996,293.399995 61.02,294.44 C61.5000024,295.080003 61.8599988,295.919995 62.1,296.96 C62.3400012,298.000005 62.659998,298.999995 63.06,299.96 C62.8999992,300.120001 62.6800014,300.279999 62.4,300.44 C62.1199986,300.600001 61.98,300.799999 61.98,301.04 C62.380002,301.440002 62.6999988,301.64 62.94,301.64 L64.98,300.44 L75.54,313.04 Z M67.14,241.4 L67.14,239.96 L66.54,239.96 L66.54,241.4 L67.14,241.4 Z M56.58,234.8 C56.4199992,234.399998 56.1200022,234.080001 55.68,233.84 C55.2399978,233.599999 54.9000012,233.48 54.66,233.48 L54.66,234.8 C54.8200008,234.960001 55.1399976,235.04 55.62,235.04 C56.1000024,235.04 56.4199992,234.960001 56.58,234.8 Z M67.74,249.08 C66.8599956,248.199996 66.1400028,247.76 65.58,247.76 L65.58,249.08 L67.74,249.08 Z M59.94,242.6 C59.94,242.439999 59.9200002,242.220001 59.88,241.94 C59.8399998,241.659999 59.7000012,241.52 59.46,241.52 C59.2999992,241.52 59.2999992,241.659999 59.46,241.94 C59.6200008,242.220001 59.7799992,242.439999 59.94,242.6 Z M53.34,239.6 C53.5800012,238.799996 53.7199998,238.180002 53.76,237.74 C53.8000002,237.299998 53.7800004,236.960001 53.7,236.72 C53.6199996,236.479999 53.5400004,236.280001 53.46,236.12 C53.3799996,235.959999 53.34,235.680002 53.34,235.28 L52.74,237.08 C52.74,237.240001 52.6800006,237.519998 52.56,237.92 C52.4399994,238.320002 52.4199996,238.599999 52.5,238.76 C52.6600008,239.080002 52.8199992,239.28 52.98,239.36 C53.0600004,239.44 53.1799992,239.52 53.34,239.6 Z M63.54,250.64 C63.54,249.679995 63.4600008,248.980002 63.3,248.54 C63.1399992,248.099998 63.06,247.800001 63.06,247.64 C62.8199988,248.040002 62.500002,248.539997 62.1,249.14 C61.699998,249.740003 61.4200008,250.239998 61.26,250.64 C61.660002,250.800001 62.0999976,250.88 62.58,250.88 C63.0600024,250.88 63.3799992,250.800001 63.54,250.64 Z M59.7,244.76 C59.5399992,244.599999 59.160003,244.400001 58.56,244.16 C57.959997,243.919999 57.060006,243.8 55.86,243.8 L55.5,245.72 C55.7400012,245.559999 55.9799988,245.320002 56.22,245 C56.4600012,244.679998 56.779998,244.52 57.18,244.52 C57.6600024,244.52 58.099998,244.599999 58.5,244.76 C58.900002,244.920001 59.299998,244.920001 59.7,244.76 Z M55.86,242.12 L53.94,241.52 L53.94,242.6 L55.86,242.12 Z M69.66,255.32 C69.0999972,255.4 68.5000032,255.579999 67.86,255.86 C67.2199968,256.140001 66.700002,256.28 66.3,256.28 L68.46,256.88 L69.66,255.32 Z M63.66,253.4 L63.66,251.96 L63.06,251.96 L63.06,253.4 L63.66,253.4 Z M42.06,233.72 L42.06,231.92 L41.46,231.92 L41.46,233.72 L42.06,233.72 Z M51.9,243.32 C51.9,243.159999 51.8600004,242.920002 51.78,242.6 C51.6999996,242.279998 51.5800008,242.040001 51.42,241.88 C51.019998,242.040001 50.5400028,242.199999 49.98,242.36 C49.4199972,242.520001 49.0600008,242.679999 48.9,242.84 L51.9,243.32 Z M42.66,235.64 C42.8200008,235.479999 42.8800002,235.200002 42.84,234.8 C42.7999998,234.399998 42.7000008,234.2 42.54,234.2 C42.3799992,234.2 42.1200018,234.379998 41.76,234.74 C41.3999982,235.100002 41.22,235.359999 41.22,235.52 C41.3800008,235.760001 41.559999,235.84 41.76,235.76 C41.960001,235.68 42.259998,235.64 42.66,235.64 Z M55.86,249.32 C55.459998,248.759997 55.0200024,248.220003 54.54,247.7 C54.0599976,247.179997 53.620002,246.92 53.22,246.92 L52.02,248.24 C52.420002,248.400001 52.7999982,248.46 53.16,248.42 C53.5200018,248.38 53.7799992,248.4 53.94,248.48 C54.1800012,248.880002 54.399999,249.259998 54.6,249.62 C54.800001,249.980002 55.0199988,250.239999 55.26,250.4 C55.3400004,250.239999 55.4199996,250.12 55.5,250.04 C55.5800004,249.96 55.6599996,249.840001 55.74,249.68 C55.8200004,249.519999 55.86,249.4 55.86,249.32 Z M63.54,256.52 L60.9,257.24 C60.1799964,256.919998 59.8000002,256.560002 59.76,256.16 C59.7199998,255.759998 59.7399996,255.380002 59.82,255.02 C59.9000004,254.659998 59.9000004,254.300002 59.82,253.94 C59.7399996,253.579998 59.3400036,253.280001 58.62,253.04 L58.62,256.76 C59.1800028,257.160002 59.7399972,257.599998 60.3,258.08 C60.8600028,258.560002 61.3799976,258.8 61.86,258.8 C62.1000012,258.8 62.3999982,258.640002 62.76,258.32 C63.1200018,257.999998 63.3799992,257.400004 63.54,256.52 Z M50.46,248.36 C50.46,248.119999 50.4200004,247.800002 50.34,247.4 C50.2599996,246.999998 50.1400008,246.720001 49.98,246.56 C49.7399988,246.56 49.5400008,246.799998 49.38,247.28 C49.2199992,247.760002 49.0600008,248.079999 48.9,248.24 C49.3800024,248.720002 49.8999972,248.760002 50.46,248.36 Z M69.54,266.36 L68.82,265.4 L68.1,265.88 C68.1800004,266.680004 68.3799984,267.499996 68.7,268.34 C69.0200016,269.180004 69.18,269.879997 69.18,270.44 L69.54,266.36 Z M43.02,241.4 C43.02,241.239999 42.8600016,241.000002 42.54,240.68 L41.82,239.96 L39.66,240.56 C40.2200028,240.720001 40.8199968,240.859999 41.46,240.98 C42.1000032,241.100001 42.619998,241.239999 43.02,241.4 Z M36.54,234.2 L35.1,234.2 L35.58,236.84 C35.7400008,236.679999 35.9399988,236.300003 36.18,235.7 C36.4200012,235.099997 36.54,234.600002 36.54,234.2 Z M33.42,233.24 C33.42,233.079999 33.3000012,232.860001 33.06,232.58 C32.8199988,232.299999 32.6200008,232.040001 32.46,231.8 L31.98,233.72 C32.1400008,233.72 32.3799984,233.68 32.7,233.6 C33.0200016,233.52 33.2599992,233.400001 33.42,233.24 Z M46.86,245.84 L45.42,245.84 C45.42,246.000001 45.5399988,246.239998 45.78,246.56 C46.0200012,246.880002 46.2199992,247.119999 46.38,247.28 C46.5400008,247.119999 46.6599996,246.880002 46.74,246.56 C46.8200004,246.239998 46.86,246.000001 46.86,245.84 Z M60.06,261.92 C60.06,261.519998 60.0200004,261.080002 59.94,260.6 C59.8599996,260.119998 59.7400008,259.680002 59.58,259.28 C59.4199992,259.28 59.1800016,259.359999 58.86,259.52 C58.6999992,259.6 58.5800004,259.64 58.5,259.64 L58.5,261.08 C58.7400012,261.240001 58.9999986,261.419999 59.28,261.62 C59.5600014,261.820001 59.8199988,261.92 60.06,261.92 Z M29.58,231.8 C29.58,231.639999 29.5400004,231.340002 29.46,230.9 C29.3799996,230.459998 29.2600008,230.120001 29.1,229.88 C28.9399992,229.88 28.7800008,230.059998 28.62,230.42 C28.4599992,230.780002 28.2600012,231.079999 28.02,231.32 C28.2600012,231.480001 28.5399984,231.6 28.86,231.68 C29.1800016,231.76 29.4199992,231.8 29.58,231.8 Z M55.5,258.44 L53.94,257.96 L53.94,258.56 L55.26,258.92 L55.5,258.44 Z M33.54,238.76 L31.98,238.28 L31.98,238.88 L33.3,239.36 L33.54,238.76 Z M59.94,266.96 C59.94,266.159996 59.9200002,265.480003 59.88,264.92 C59.8399998,264.359997 59.7400008,264.000001 59.58,263.84 C59.4199992,263.84 59.1800016,263.919999 58.86,264.08 C58.6999992,264.16 58.5800004,264.24 58.5,264.32 C58.5,264.720002 58.699998,265.199997 59.1,265.76 C59.500002,266.320003 59.7799992,266.719999 59.94,266.96 Z M34.26,240.44 C34.0199988,240.44 33.6800022,240.519999 33.24,240.68 C32.7999978,240.840001 32.5000008,240.92 32.34,240.92 L33.78,241.52 L34.26,240.44 Z M23.58,232.88 L23.58,231.92 L22.86,231.92 L22.86,232.88 L23.58,232.88 Z M60.42,269.12 C60.42,268.959999 60.220002,268.820001 59.82,268.7 C59.419998,268.579999 59.1400008,268.52 58.98,268.52 L58.98,269.96 C59.1400008,269.96 59.3799984,269.860001 59.7,269.66 C60.0200016,269.459999 60.2599992,269.280001 60.42,269.12 Z M30.42,238.88 L28.26,238.4 C27.6199968,238.880002 27.3,239.239999 27.3,239.48 C28.9800084,239.48 30.019998,239.280002 30.42,238.88 Z M32.58,243.44 C32.179998,243.600001 31.8200016,243.799999 31.5,244.04 C31.1799984,244.280001 30.9400008,244.519999 30.78,244.76 C31.180002,245.000001 31.5399984,245.060001 31.86,244.94 C32.1800016,244.819999 32.4199992,244.680001 32.58,244.52 L32.58,243.44 Z M26.7,234.92 L24.78,234.56 C24.2999976,234.56 23.9400012,234.679999 23.7,234.92 L23.1,235.52 C23.5800024,236.000002 23.82,236.479998 23.82,236.96 L21.9,238.16 L21.9,239.48 C23.9800104,239.48 25.1399988,239.320002 25.38,239 C25.38,238.599998 25.3200006,238.160002 25.2,237.68 C25.0799994,237.199998 25.1399988,236.760002 25.38,236.36 C25.7000016,235.959998 25.8999996,235.620001 25.98,235.34 C26.0600004,235.059999 26.299998,234.92 26.7,234.92 Z M57.78,268.4 L57.78,267.08 C57.379998,266.679998 56.9400024,266.300002 56.46,265.94 C55.9799976,265.579998 55.5000024,265.4 55.02,265.4 C54.5399976,265.4 54.000003,265.639998 53.4,266.12 C52.799997,266.600002 52.1800032,266.919999 51.54,267.08 L54.54,269.96 C54.3799992,269.159996 54.2400006,268.480003 54.12,267.92 C53.9999994,267.359997 54.0199992,266.880002 54.18,266.48 L55.5,266.48 C55.7400012,266.880002 56.0799978,267.299998 56.52,267.74 C56.9600022,268.180002 57.379998,268.4 57.78,268.4 Z M27.3,244.04 L27.3,242.36 C27.3,241.799997 27.100002,241.460001 26.7,241.34 C26.299998,241.219999 25.9800012,241.16 25.74,241.16 C25.74,241.800003 25.7200002,242.279998 25.68,242.6 C25.6399998,242.920002 25.5800004,243.179999 25.5,243.38 C25.4199996,243.580001 25.3000008,243.779999 25.14,243.98 C24.9799992,244.180001 24.8200008,244.479998 24.66,244.88 L26.34,244.88 L27.3,244.04 Z M23.46,242 L21.66,241.52 C21.259998,242.160003 21.259998,242.639998 21.66,242.96 L22.98,242.96 L23.46,242 Z M50.82,271.16 C50.82,270.759998 50.7600006,270.340002 50.64,269.9 C50.5199994,269.459998 50.3800008,269.24 50.22,269.24 C50.0599992,269.24 49.9600002,269.28 49.92,269.36 C49.8799998,269.44 49.7800008,269.52 49.62,269.6 C49.4599992,269.68 49.3400004,269.76 49.26,269.84 C49.660002,270.720004 50.1799968,271.16 50.82,271.16 Z M58.26,280.04 L58.26,278.96 L57.66,278.96 L57.66,280.04 L58.26,280.04 Z M20.34,238.4 L18.9,238.4 L15.78,242.6 C16.7400048,242.119998 17.6999952,241.460004 18.66,240.62 C19.6200048,239.779996 20.1799992,239.040003 20.34,238.4 Z M51.18,258.44 C51.18,257.959998 50.980002,257.000007 50.58,255.56 C50.179998,254.119993 49.8200016,252.960004 49.5,252.08 C49.4199996,251.839999 48.980004,251.400003 48.18,250.76 C47.379996,250.119997 46.4200056,249.720001 45.3,249.56 C44.8199976,249.48 44.1400044,249.380001 43.26,249.26 C42.3799956,249.139999 41.5000044,249.04 40.62,248.96 C39.7399956,248.88 38.9600034,248.88 38.28,248.96 C37.5999966,249.04 37.1400012,249.239998 36.9,249.56 L32.94,246.92 C32.539998,246.92 32.0600028,247.019999 31.5,247.22 C30.9399972,247.420001 30.460002,247.719998 30.06,248.12 L30.06,250.64 L31.32,251.9 C31.7600022,252.340002 31.98,252.799998 31.98,253.28 C31.98,253.760002 31.8400014,254.319997 31.56,254.96 C31.2799986,255.600003 31.14,256.319996 31.14,257.12 L31.5,261.8 C31.5,262.520004 31.2600024,263.239996 30.78,263.96 C30.78,264.200001 30.8399994,264.439999 30.96,264.68 C31.0800006,264.920001 31.2199992,265.119999 31.38,265.28 C31.5400008,265.840003 31.5400008,266.459997 31.38,267.14 C31.2199992,267.820003 31.0200012,268.459997 30.78,269.06 C30.5399988,269.660003 30.2800014,270.199998 30,270.68 C29.7199986,271.160002 29.5000008,271.44 29.34,271.52 C28.7799972,271.840002 28.100004,272.02 27.3,272.06 C26.499996,272.1 26.0200008,272.239999 25.86,272.48 C25.7799996,272.640001 25.74,272.839999 25.74,273.08 L25.74,273.44 L27.54,273.44 C27.940002,273.039998 28.2599988,272.760001 28.5,272.6 C28.7400012,272.439999 29.0999976,272.36 29.58,272.36 C30.3000036,272.36 30.8199984,272.799996 31.14,273.68 C30.739998,274.080002 30.5200002,274.459998 30.48,274.82 C30.4399998,275.180002 30.42,275.639997 30.42,276.2 C30.5800008,276.2 30.8199984,276.259999 31.14,276.38 C31.4600016,276.500001 31.9399968,276.56 32.58,276.56 C32.980002,275.919997 33.3999978,275.340003 33.84,274.82 C34.2800022,274.299997 34.7799972,273.960001 35.34,273.8 C34.4599956,272.359993 34.9399908,271.360003 36.78,270.8 C37.580004,270.8 38.0999988,270.740001 38.34,270.62 C38.5800012,270.499999 38.9399976,270.44 39.42,270.44 C39.9000024,270.44 40.3999974,270.759997 40.92,271.4 C41.4400026,272.040003 41.899998,272.36 42.3,272.36 C42.7800024,271.479996 43.4999952,270.700003 44.46,270.02 C45.4200048,269.339997 46.3799952,268.700003 47.34,268.1 C48.3000048,267.499997 49.1199966,266.940003 49.8,266.42 C50.4800034,265.899997 50.82,265.400002 50.82,264.92 L50.82,261.32 C50.82,260.839998 50.8799994,260.340003 51,259.82 C51.1200006,259.299997 51.18,258.840002 51.18,258.44 Z M27.42,251.6 L26.82,251 L26.46,251.48 L26.94,251.96 L27.42,251.6 Z M19.98,244.04 C19.98,243.879999 19.8400014,243.620002 19.56,243.26 C19.2799986,242.899998 19.0600008,242.72 18.9,242.72 C18.7399992,243.120002 18.5000016,243.539998 18.18,243.98 C17.8599984,244.420002 17.7,244.719999 17.7,244.88 L19.02,244.88 L19.98,244.04 Z M53.46,277.4 C53.46,276.919998 53.4200004,276.64 53.34,276.56 L52.98,276.2 L51.6,277.58 C51.0799974,278.100003 50.82,278.599998 50.82,279.08 C50.82,279.480002 50.8999992,279.759999 51.06,279.92 C51.1400004,280 51.2599992,280.04 51.42,280.04 C51.820002,279.639998 52.2599976,279.220002 52.74,278.78 C53.2200024,278.339998 53.46,277.880002 53.46,277.4 Z M25.74,250.88 L23.46,250.4 L23.46,251.48 L25.74,250.88 Z M24.18,246.2 C23.5399968,246.360001 22.8800034,246.639998 22.2,247.04 C21.5199966,247.440002 20.980002,247.64 20.58,247.64 C20.0999976,247.64 19.5000036,247.560001 18.78,247.4 C18.0599964,247.239999 17.5800012,247.239999 17.34,247.4 C17.34,247.560001 17.439999,247.859998 17.64,248.3 C17.840001,248.740002 18.0199992,249.039999 18.18,249.2 L22.14,249.2 C22.540002,248.799998 22.9799976,248.300003 23.46,247.7 C23.9400024,247.099997 24.18,246.600002 24.18,246.2 Z M46.62,278 C46.62,277.359997 46.4600016,276.660004 46.14,275.9 C45.8199984,275.139996 45.66,274.480003 45.66,273.92 L45.06,278 C45.5400024,278.480002 46.0599972,278.480002 46.62,278 Z M51.9,282.44 C51.499998,282.44 51.0200028,282.280002 50.46,281.96 C49.8999972,281.639998 49.420002,281.400001 49.02,281.24 C48.8599992,281.640002 48.8199996,282.079998 48.9,282.56 C48.9800004,283.040002 48.9800004,283.479998 48.9,283.88 L51.42,283.88 C51.6600012,283.719999 51.7999998,283.480002 51.84,283.16 C51.8800002,282.839998 51.9,282.600001 51.9,282.44 Z M24.18,256.4 C24.0199992,255.999998 23.8000014,255.580002 23.52,255.14 C23.2399986,254.699998 22.900002,254.280002 22.5,253.88 L20.82,253.88 L20.82,254.6 C21.3800028,255.000002 21.9799968,255.419998 22.62,255.86 C23.2600032,256.300002 23.779998,256.48 24.18,256.4 Z M16.74,250.76 C17.140002,251.240002 17.0600028,251.759997 16.5,252.32 C16.1799984,251.679997 16.2599976,251.160002 16.74,250.76 Z M46.5,281.96 C46.5,281.799999 46.4600004,281.560002 46.38,281.24 C46.2999996,280.919998 46.1800008,280.640001 46.02,280.4 C45.8599992,280.560001 45.7000008,280.799998 45.54,281.12 C45.4599996,281.280001 45.42,281.4 45.42,281.48 C45.5000004,281.640001 45.5999994,281.72 45.72,281.72 C45.8400006,281.72 45.9799992,281.76 46.14,281.84 C46.3000008,281.92 46.4199996,281.96 46.5,281.96 Z M22.62,257.84 C22.4599992,257.679999 22.2200016,257.56 21.9,257.48 C21.5799984,257.4 21.3400008,257.36 21.18,257.36 L21.18,258.8 C21.6600024,258.72 22.0599984,258.520002 22.38,258.2 C22.5400008,258.039999 22.62,257.92 22.62,257.84 Z M42.54,276.92 C42.139998,277.560003 41.8000014,278.219997 41.52,278.9 C41.2399986,279.580003 41.1799992,280.079998 41.34,280.4 C41.740002,279.839997 42.039999,279.220003 42.24,278.54 C42.440001,277.859997 42.54,277.320002 42.54,276.92 Z M59.7,297.32 C59.5399992,297.079999 59.2400022,296.860001 58.8,296.66 C58.3599978,296.459999 58.0200012,296.36 57.78,296.36 C57.78,296.760002 57.8599992,297.039999 58.02,297.2 C58.1800008,297.360001 58.26,297.519999 58.26,297.68 C58.7400024,297.68 59.0599992,297.64 59.22,297.56 L59.7,297.32 Z M52.74,290.96 C52.339998,290.96 51.940002,290.780002 51.54,290.42 C51.139998,290.059998 50.8000014,289.640002 50.52,289.16 C50.2399986,288.679998 50.0400006,288.200002 49.92,287.72 C49.7999994,287.239998 49.8199992,286.880001 49.98,286.64 L49.32,287.3 C49.0399986,287.580001 48.9,287.919998 48.9,288.32 C48.9,288.800002 49.2399966,289.479996 49.92,290.36 C50.6000034,291.240004 51.139998,291.68 51.54,291.68 C52.0200024,291.68 52.2999996,291.600001 52.38,291.44 C52.4600004,291.279999 52.5799992,291.120001 52.74,290.96 Z M27.66,265.04 L26.22,265.04 C26.3800008,265.440002 26.659998,265.580001 27.06,265.46 C27.460002,265.339999 27.66,265.200001 27.66,265.04 Z M46.5,286.16 L46.5,284.84 L45.66,283.88 C45.4199988,284.040001 45.1400016,284.279998 44.82,284.6 C44.4999984,284.920002 44.34,285.159999 44.34,285.32 C44.740002,285.560001 45.1599978,285.759999 45.6,285.92 C46.0400022,286.080001 46.3399992,286.16 46.5,286.16 Z M47.46,287.72 L47.46,286.28 L46.86,286.28 L46.86,287.72 L47.46,287.72 Z M19.98,260.6 L19.5,258.44 C19.2599988,258.600001 19.0000014,258.899998 18.72,259.34 C18.4399986,259.780002 18.2200008,260.199998 18.06,260.6 C18.2200008,260.760001 18.5399976,260.86 19.02,260.9 C19.5000024,260.94 19.8199992,260.840001 19.98,260.6 Z M41.1,282.8 L38.1,282.44 C38.2600008,282.840002 38.4999984,283.179999 38.82,283.46 C39.1400016,283.740001 39.5399976,283.88 40.02,283.88 C40.5000024,283.88 40.7999994,283.740001 40.92,283.46 C41.0400006,283.179999 41.1,282.960001 41.1,282.8 Z M53.82,297.68 C53.82,297.519999 53.7600006,297.300001 53.64,297.02 C53.5199994,296.739999 53.46,296.520001 53.46,296.36 C53.1399984,296.36 52.8200016,296.439999 52.5,296.6 L52.02,296.84 C52.1800008,297.000001 52.4799978,297.179999 52.92,297.38 C53.3600022,297.580001 53.6599992,297.68 53.82,297.68 Z M22.62,265.52 L19.62,265.04 L19.5,265.76 C19.7400012,265.920001 20.0999976,266.099999 20.58,266.3 C21.0600024,266.500001 21.499998,266.6 21.9,266.6 C22.3800024,266.6 22.62,266.460001 22.62,266.18 L22.62,265.52 Z M17.94,263.84 C17.94,263.679999 17.8800006,263.440002 17.76,263.12 C17.6399994,262.799998 17.58,262.440002 17.58,262.04 C17.0199972,261.96 16.7200002,261.999999 16.68,262.16 C16.6399998,262.320001 16.6999992,262.519999 16.86,262.76 C17.0200008,263.000001 17.2199988,263.219999 17.46,263.42 C17.7000012,263.620001 17.8599996,263.76 17.94,263.84 Z M24.18,269.36 C23.8599984,269.039998 23.3800032,268.88 22.74,268.88 C22.5799992,269.040001 22.5399996,269.279998 22.62,269.6 C22.7000004,269.920002 22.74,270.159999 22.74,270.32 C22.9000008,270.32 23.179998,270.200001 23.58,269.96 C23.980002,269.719999 24.18,269.520001 24.18,269.36 Z M48.54,293.36 C48.54,293.039998 48.4200012,292.760001 48.18,292.52 C48.0999996,292.44 48.0200004,292.4 47.94,292.4 C47.6999988,292.800002 47.480001,293.299997 47.28,293.9 C47.079999,294.500003 46.9400004,294.999998 46.86,295.4 C47.1800016,295.239999 47.539998,294.980002 47.94,294.62 C48.340002,294.259998 48.54,293.840002 48.54,293.36 Z M49.98,295.16 C49.8199992,295.16 49.6000014,295.2 49.32,295.28 C49.0399986,295.36 48.9,295.639998 48.9,296.12 L48.9,297.44 C49.300002,297.039998 49.5799992,296.600002 49.74,296.12 C49.9000008,295.639998 49.98,295.320001 49.98,295.16 Z M45.66,292.04 C45.4999992,292.200001 45.3400008,292.439998 45.18,292.76 C45.0999996,292.920001 45.06,293.04 45.06,293.12 C45.2200008,293.12 45.399999,292.980001 45.6,292.7 C45.800001,292.419999 45.8200008,292.200001 45.66,292.04 Z M36.9,278.96 L31.98,278.6 C32.3000016,278.920002 32.6399982,279.06 33,279.02 C33.3600018,278.98 33.7799976,279.159998 34.26,279.56 C34.26,280.200003 33.9000036,280.879996 33.18,281.6 C32.6999976,281.6 32.2200024,281.360002 31.74,280.88 L29.7,282.44 L29.7,284.24 C30.500004,284.079999 31.1399976,283.96 31.62,283.88 C32.1000024,283.8 32.4199992,283.680001 32.58,283.52 L34.14,283.88 C34.3000008,283.079996 34.6599972,282.260004 35.22,281.42 C35.7800028,280.579996 36.3399972,279.760004 36.9,278.96 Z M19.86,268.4 L19.86,267.92 C19.6999992,267.84 19.4000022,267.8 18.96,267.8 C18.5199978,267.8 18.2200008,267.999998 18.06,268.4 L19.86,268.4 Z M59.22,308.6 C59.22,308.52 59.0600016,308.280002 58.74,307.88 C58.4199984,307.479998 58.0400022,307.100002 57.6,306.74 C57.1599978,306.379998 56.7000024,306.080001 56.22,305.84 C55.7399976,305.599999 55.3400016,305.52 55.02,305.6 C55.5000024,306.400004 56.0999964,306.979998 56.82,307.34 C57.5400036,307.700002 58.3399956,308.119998 59.22,308.6 Z M22.86,273.44 C22.9400004,273.199999 22.9200006,272.880002 22.8,272.48 C22.6799994,272.079998 22.420002,271.760001 22.02,271.52 C21.8599992,271.920002 21.8399994,272.379997 21.96,272.9 C22.0800006,273.420003 22.2599988,273.759999 22.5,273.92 L22.86,273.44 Z M49.98,299 C49.579998,299.160001 49.2400014,299.459998 48.96,299.9 C48.6799986,300.340002 48.5799996,300.639999 48.66,300.8 C49.060002,300.639999 49.3799988,300.340002 49.62,299.9 C49.8600012,299.459998 49.98,299.160001 49.98,299 Z M54.18,305.12 C54.18,304.879999 54.1600002,304.640001 54.12,304.4 C54.0799998,304.159999 53.9800008,303.960001 53.82,303.8 C53.5799988,303.72 53.3400012,303.72 53.1,303.8 C52.9399992,303.88 52.8200004,303.96 52.74,304.04 C52.9000008,304.440002 53.1399984,304.719999 53.46,304.88 C53.7800016,305.040001 54.0199992,305.12 54.18,305.12 Z M29.22,277.76 C28.819998,277.439998 28.3600026,277.160001 27.84,276.92 C27.3199974,276.679999 26.7800028,276.56 26.22,276.56 L24.3,276.56 C23.9799984,277.040002 23.8000002,277.579997 23.76,278.18 C23.7199998,278.780003 23.7799992,279.279998 23.94,279.68 C24.340002,279.68 24.739998,279.420003 25.14,278.9 C25.540002,278.379997 26.0199972,278.12 26.58,278.12 C27.0600024,278.12 27.2800002,278.179999 27.24,278.3 C27.1999998,278.420001 27.4199976,278.48 27.9,278.48 C28.3800024,278.48 28.6799994,278.420001 28.8,278.3 C28.9200006,278.179999 29.0599992,278.000001 29.22,277.76 Z M15.42,266.24 L14.94,266.24 L14.46,267.56 L14.94,267.8 L15.42,266.24 Z M41.46,294.32 L41.46,293.24 C41.1399984,292.919998 40.5400044,292.959998 39.66,293.36 C39.8200008,293.520001 40.1199978,293.719999 40.56,293.96 C41.0000022,294.200001 41.2999992,294.32 41.46,294.32 Z M28.86,281.36 C28.6999992,281.199999 28.3800024,281.12 27.9,281.12 C27.4199976,281.12 27.1000008,281.199999 26.94,281.36 C27.4200024,282.000003 27.8999976,282.32 28.38,282.32 C28.4600004,282.24 28.5799992,282.040002 28.74,281.72 C28.8200004,281.559999 28.86,281.44 28.86,281.36 Z M33.78,287.6 C33.6199992,287.199998 33.3200022,286.880001 32.88,286.64 C32.4399978,286.399999 32.1400008,286.28 31.98,286.28 L31.98,288.08 L33.78,287.6 Z M20.22,274.4 L20.22,273.8 L18.54,273.44 L18.54,273.92 L20.22,274.4 Z M50.58,304.16 L49.98,303.92 L48.78,306.08 L49.26,306.32 L50.58,304.16 Z M17.7,275.6 C17.299998,275.439999 16.7800032,275.220001 16.14,274.94 C15.4999968,274.659999 14.980002,274.440001 14.58,274.28 C14.7400008,274.680002 14.9999982,275.099998 15.36,275.54 C15.7200018,275.980002 16.099998,276.2 16.5,276.2 C16.9800024,276.2 17.2399998,276.140001 17.28,276.02 C17.3200002,275.899999 17.4599988,275.760001 17.7,275.6 Z M19.5,279.2 C19.5,279.039999 19.3800012,278.740002 19.14,278.3 C18.8999988,277.859998 18.7000008,277.560001 18.54,277.4 L18.06,278.72 C18.2200008,278.880001 18.4599984,279 18.78,279.08 C19.1000016,279.16 19.3399992,279.2 19.5,279.2 Z M25.38,282.92 C24.579996,282.92 23.9600022,282.9 23.52,282.86 C23.0799978,282.82 22.660002,282.680001 22.26,282.44 C22.4200008,281.879997 22.4600004,281.400002 22.38,281 C22.2999996,280.599998 22.1800008,280.4 22.02,280.4 C21.619998,280.640001 21.1800024,281.019997 20.7,281.54 C20.2199976,282.060003 19.98,282.519998 19.98,282.92 C19.98,283.400002 20.0199996,283.699999 20.1,283.82 C20.1800004,283.940001 20.2999992,284.079999 20.46,284.24 L25.38,282.92 Z M28.38,287.84 C28.2199992,287.84 27.9800016,288.019998 27.66,288.38 C27.3399984,288.740002 27.1000008,288.999999 26.94,289.16 C27.340002,289.16 27.6799986,288.980002 27.96,288.62 C28.2400014,288.259998 28.38,288.000001 28.38,287.84 Z M18.06,281 C17.4999972,280.439997 16.9800024,280.16 16.5,280.16 L16.98,282.32 C17.7000036,281.999998 18.06,281.560003 18.06,281 Z M17.94,285.44 C17.94,285.279999 17.8600008,285.040002 17.7,284.72 C17.6199996,284.559999 17.58,284.44 17.58,284.36 C16.9399968,284.36 16.3800024,284.479999 15.9,284.72 C15.4199976,284.960001 15.1000008,285.159999 14.94,285.32 C15.340002,285.480001 15.839997,285.54 16.44,285.5 C17.040003,285.46 17.539998,285.44 17.94,285.44 Z M27.18,296.6 L27.18,294.44 C26.8599984,293.959998 26.2600044,293.959998 25.38,294.44 C25.5400008,294.840002 25.7799984,295.259998 26.1,295.7 C26.4200016,296.140002 26.779998,296.439999 27.18,296.6 Z M23.82,290.96 L21.9,289.52 C22.3800024,289.039998 22.4600016,288.600002 22.14,288.2 L16.5,291.44 L16.98,292.04 L20.34,291.2 C20.8200024,291.360001 21.2999976,291.659998 21.78,292.1 C22.2600024,292.540002 22.4600004,292.999998 22.38,293.48 C22.5400008,293.319999 22.7799984,292.960003 23.1,292.4 C23.4200016,291.839997 23.6599992,291.360002 23.82,290.96 Z M13.14,285.56 L12.54,285.44 L12.06,286.4 L12.66,286.64 L13.14,285.56 Z M23.82,298.04 L21.9,297.44 C22.1400012,297.840002 22.4799978,298.04 22.92,298.04 L23.82,298.04 Z M19.86,297.32 C19.86,297.159999 19.8000006,296.860002 19.68,296.42 C19.5599994,295.979998 19.5,295.680001 19.5,295.52 L18.06,295.52 L18.06,296.96 L19.86,297.32 Z M13.38,291.44 L13.38,290.6 C13.38,290.199998 13.180002,289.920001 12.78,289.76 C12.78,290.320003 12.7400004,290.859997 12.66,291.38 C12.5799996,291.900003 12.6199992,292.239999 12.78,292.4 C12.9400008,292.32 13.0999992,292.120002 13.26,291.8 C13.3400004,291.639999 13.38,291.52 13.38,291.44 Z M17.22,298.52 L17.22,296.72 L15.42,296.24 C15.42,296.640002 15.619998,297.019998 16.02,297.38 C16.420002,297.740002 16.819998,298.119998 17.22,298.52 Z M20.34,302.24 C19.939998,301.999999 19.4600028,301.780001 18.9,301.58 C18.3399972,301.379999 17.660004,301.28 16.86,301.28 L16.86,303.08 L18,304.22 C18.3600018,304.580002 18.739998,304.72 19.14,304.64 C19.14,304.239998 19.0800006,303.860002 18.96,303.5 C18.8399994,303.139998 18.8999988,302.760002 19.14,302.36 C19.3000008,302.36 19.4999988,302.38 19.74,302.42 C19.9800012,302.46 20.1799992,302.400001 20.34,302.24 Z M22.98,304.76 C22.3399968,305.400003 21.6800034,305.879998 21,306.2 C20.3199966,306.520002 19.98,306.879998 19.98,307.28 C19.98,307.760002 20.0599992,308.059999 20.22,308.18 C20.3800008,308.300001 20.46,308.439999 20.46,308.6 C20.7000012,308.279998 21.1799964,307.800003 21.9,307.16 C22.6200036,306.519997 22.98,305.720005 22.98,304.76 Z M13.02,298.16 L11.58,297.68 L11.58,298.28 L12.78,298.76 L13.02,298.16 Z M16.98,307.4 C17.2200012,307.239999 17.3599998,307.000002 17.4,306.68 C17.4400002,306.359998 17.1800028,306.120001 16.62,305.96 C16.62,306.440002 16.6599996,306.759999 16.74,306.92 L16.98,307.4 Z M19.02,311.36 C18.8599992,311.520001 18.680001,311.819998 18.48,312.26 C18.279999,312.700002 18.18,312.999999 18.18,313.16 C18.9000036,312.519997 19.1800008,311.920003 19.02,311.36 Z M135.363496,251.313769 C135.37082,251.294935 135.389655,251.270345 135.42,251.24 C135.42,251.079999 135.659998,251 136.14,251 C136.540002,251 137.199995,251.479995 138.12,252.44 C139.040005,253.400005 139.939996,254.459994 140.82,255.62 C141.700004,256.780006 142.499996,257.839995 143.22,258.8 C143.940004,259.760005 144.3,260.28 144.3,260.36 C144.620002,261.240004 145.039997,262.239994 145.56,263.36 C146.080003,264.480006 146.539998,265.559995 146.94,266.6 C147.100001,266.920002 147.080001,267.379997 146.88,267.98 C146.679999,268.580003 146.420002,269.159997 146.1,269.72 L146.22,269.84 C146.3,269.92 146.34,270 146.34,270.08 C146.34,270.16 146.419999,270.24 146.58,270.32 C146.66,270.32 146.779999,270.28 146.94,270.2 C147.260002,270.039999 147.699997,269.96 148.26,269.96 L149.46,274.28 L149.46,280.52 L148.62,283.64 L148.62,285.56 L145.14,293.6 L145.14,295.28 L136.26,306.08 C136.099999,306.16 135.880001,306.100001 135.6,305.9 C135.319999,305.699999 134.980002,305.520001 134.58,305.36 C134.419999,305.520001 134.34,305.759998 134.34,306.08 L134.34,307.16 C134.26,307.480002 134.040002,307.979997 133.68,308.66 C133.319998,309.340003 132.820003,309.64 132.18,309.56 L130.02,309.56 L127.62,312.68 C127.459999,312.519999 127.260001,312.360001 127.02,312.2 C126.779999,312.039999 126.420002,311.96 125.94,311.96 C125.459998,311.96 124.940003,312.179998 124.38,312.62 C123.819997,313.060002 123.100004,313.359999 122.22,313.52 C121.739998,313.6 121.220003,313.699999 120.66,313.82 C120.099997,313.940001 119.460004,314.079999 118.74,314.24 L117.54,311.96 C117.139998,312.120001 116.780002,312.539997 116.46,313.22 C116.139998,313.900003 115.740002,314.24 115.26,314.24 C114.539996,314.24 113.820004,313.820004 113.1,312.98 C112.379996,312.139996 112.02,311.400003 112.02,310.76 C112.02,310.279998 112.139999,309.760003 112.38,309.2 C112.620001,308.639997 112.819999,308.080003 112.98,307.52 C113.140001,306.959997 113.22,306.460002 113.22,306.02 C113.22,305.579998 112.940003,305.160002 112.38,304.76 C112.780002,304.359998 113.159998,304.040001 113.52,303.8 C113.880002,303.559999 114.139999,303.240002 114.3,302.84 C114.139999,302.439998 113.920001,302.040002 113.64,301.64 C113.359999,301.239998 113.22,300.800002 113.22,300.32 C113.22,299.919998 113.339999,299.120006 113.58,297.92 C113.820001,296.719994 114.099998,295.760004 114.42,295.04 C114.580001,294.639998 114.919997,294.340001 115.44,294.14 C115.960003,293.939999 116.419998,293.84 116.82,293.84 L121.62,291.92 L121.98,291.92 C122.140001,291.92 122.24,291.96 122.28,292.04 C122.32,292.12 122.419999,292.2 122.58,292.28 C123.140003,291.639997 123.499999,290.840005 123.66,289.88 C123.820001,288.919995 124.099998,288.080004 124.5,287.36 C124.660001,286.959998 125.019997,286.640001 125.58,286.4 C126.140003,286.159999 126.619998,285.840002 127.02,285.44 C127.260001,285.039998 127.499999,284.580003 127.74,284.06 C127.980001,283.539997 128.419997,282.960003 129.06,282.32 L129.06,276.68 C128.659998,276.039997 128.300002,275.260005 127.98,274.34 C127.659998,273.419995 127.46,272.560004 127.38,271.76 C126.979998,271.359998 126.660001,270.920002 126.42,270.44 C126.179999,269.959998 125.860002,269.520002 125.46,269.12 C125.059998,268.639998 124.580003,268.100003 124.02,267.5 C123.459997,266.899997 122.880003,266.320003 122.28,265.76 C121.679997,265.199997 121.140002,264.720002 120.66,264.32 C120.179998,263.919998 119.820001,263.72 119.58,263.72 C119.099998,263.72 118.760001,263.799999 118.56,263.96 C118.359999,264.120001 118.180001,264.279999 118.02,264.44 L115.74,263.36 L113.82,264.44 C113.659999,264.44 113.400002,264.320001 113.04,264.08 C112.679998,263.839999 112.260002,263.72 111.78,263.72 C111.299998,263.72 110.900002,263.76 110.58,263.84 C110.259998,263.92 109.780003,264 109.14,264.08 L105.78,265.04 C105.379998,265.920004 104.760004,266.899995 103.92,267.98 C103.079996,269.060005 102.420002,270.279993 101.94,271.64 C101.699999,272.360004 101.360002,273.019997 100.92,273.62 C100.479998,274.220003 100.180001,274.839997 100.02,275.48 C99.9399996,276.840007 100.099998,277.799997 100.5,278.36 L99.18,280.64 C98.779998,280.479999 98.4400014,280.180002 98.16,279.74 C97.8799986,279.299998 97.4200032,278.960001 96.78,278.72 L96.18,279.44 L100.5,285.56 C100.099998,285.720001 99.6400026,285.8 99.12,285.8 C98.5999974,285.8 98.140002,285.879999 97.74,286.04 C97.74,286.280001 97.9799976,286.559998 98.46,286.88 L100.62,286.88 C101.100002,286.88 101.499998,287.039998 101.82,287.36 C102.140002,287.680002 102.399999,288.059998 102.6,288.5 C102.800001,288.940002 102.959999,289.379998 103.08,289.82 C103.200001,290.260002 103.26,290.599999 103.26,290.84 C103.740002,291.160002 104.179998,291.659997 104.58,292.34 C104.980002,293.020003 105.379998,293.759996 105.78,294.56 L106.02,294.56 C106.260001,294.56 106.42,294.480001 106.5,294.32 C106.58,294.159999 106.560001,293.980001 106.44,293.78 C106.319999,293.579999 106.26,293.360001 106.26,293.12 C106.26,293.04 106.3,292.96 106.38,292.88 C106.46,292.8 106.5,292.72 106.5,292.64 C106.5,292.56 106.579999,292.440001 106.74,292.28 C107.620004,292.600002 108.179999,293.159996 108.42,293.96 C108.660001,294.760004 109.099997,295.639995 109.74,296.6 L109.74,305.6 C109.499999,305.840001 109.300001,306.119998 109.14,306.44 C108.979999,306.760002 108.820001,306.999999 108.66,307.16 C108.58,307.640002 108.599999,308.259996 108.72,309.02 C108.840001,309.780004 108.88,310.479997 108.84,311.12 C108.8,311.760003 108.600002,312.319998 108.24,312.8 C107.879998,313.280002 107.220005,313.52 106.26,313.52 C105.859998,313.52 105.420002,313.260003 104.94,312.74 C104.459998,312.219997 103.980002,311.96 103.5,311.96 C103.019998,311.96 102.74,312.019999 102.66,312.14 C102.58,312.260001 102.300002,312.32 101.82,312.32 C101.339998,312.32 100.880002,312.060003 100.44,311.54 C99.9999978,311.019997 99.5400024,310.76 99.06,310.76 C98.5799976,310.76 98.4599988,310.819999 98.7,310.94 C98.9400012,311.060001 98.8200024,311.12 98.34,311.12 C97.6199964,311.12 96.8800038,310.720004 96.12,309.92 C95.3599962,309.119996 94.780002,308.560002 94.38,308.24 C93.979998,308.16 93.5200026,308.060001 93,307.94 C92.4799974,307.819999 92.020002,307.560002 91.62,307.16 C90.0999924,305.399991 88.540008,303.54001 86.94,301.58 C85.339992,299.61999 83.740008,297.760009 82.14,296 C82.14,295.679998 82.2599988,295.300002 82.5,294.86 C82.7400012,294.419998 82.9399992,294.000002 83.1,293.6 C83.2600008,293.199998 83.3200002,292.880001 83.28,292.64 C83.2399998,292.399999 82.9800024,292.28 82.5,292.28 C82.0199976,292.28 81.7400004,292.399999 81.66,292.64 C81.5799996,292.880001 81.4600008,293 81.3,293 L81.06,292.76 C80.8199988,292.519999 80.7,292.320001 80.7,292.16 C80.6199996,291.679998 80.6199996,291.120003 80.7,290.48 C80.7800004,289.839997 80.8599996,289.220003 80.94,288.62 C81.0200004,288.019997 81.0799998,287.520002 81.12,287.12 C81.1600002,286.719998 81.0600012,286.52 80.82,286.52 C80.3399976,286.52 80.1399996,286.599999 80.22,286.76 C80.3000004,286.920001 80.34,287.079999 80.34,287.24 C79.939998,287.079999 79.6000014,286.760002 79.32,286.28 C79.0399986,285.799998 78.9,285.280003 78.9,284.72 L78.9,282.62 C78.9,282.099997 79.1399976,281.520003 79.62,280.88 L78.66,276.92 L78.42,276.32 C78.5000004,275.839998 78.6599988,275.360002 78.9,274.88 C79.1400012,274.399998 79.3399992,273.920002 79.5,273.44 C79.6600008,272.959998 79.7000004,272.480002 79.62,272 C79.5399996,271.519998 79.2200028,271.040002 78.66,270.56 L81.66,265.64 L83.22,266 C83.22,266.08 83.2599996,266.12 83.34,266.12 L83.34,266 C83.34,265.92 83.3599998,265.86 83.4,265.82 C83.4400002,265.78 83.46,265.680001 83.46,265.52 C83.46,265.119998 83.2000026,264.640003 82.68,264.08 C82.1599974,263.519997 81.9,263.000002 81.9,262.52 C81.9,262.279999 82.0599984,261.900003 82.38,261.38 C82.7000016,260.859997 83.059998,260.320003 83.46,259.76 C83.860002,259.199997 84.2199984,258.720002 84.54,258.32 C84.8600016,257.919998 85.0599996,257.72 85.14,257.72 C85.3000008,257.64 85.6399974,257.659999 86.16,257.78 C86.6800026,257.900001 86.94,257.760002 86.94,257.36 L86.94,254.96 C87.8200044,254.559998 88.6799958,253.820005 89.52,252.74 C90.3600042,251.659995 91.2199956,250.760004 92.1,250.04 C92.2600008,249.879999 92.5999974,249.76 93.12,249.68 C93.6400026,249.6 94.0599984,249.480001 94.38,249.32 C94.780002,249.159999 95.0999988,248.840002 95.34,248.36 C95.5800012,247.879998 95.899998,247.520001 96.3,247.28 C96.9400032,246.959998 97.8199944,246.8 98.94,246.8 L102.06,247.16 C102.300001,246.759998 102.360001,246.300003 102.24,245.78 C102.119999,245.259997 102.06,244.720003 102.06,244.16 C102.300001,244.08 102.539999,244.199998 102.78,244.52 C103.020001,244.840002 103.339998,245.199998 103.74,245.6 C104.380003,244.959997 105.099996,244.480002 105.9,244.16 C106.700004,243.839998 107.339998,243.68 107.82,243.68 C108.220002,243.68 108.539999,243.739999 108.78,243.86 C109.020001,243.980001 109.379998,244.04 109.86,244.04 C110.340002,244.04 110.699999,243.960001 110.94,243.8 C111.180001,243.639999 111.499998,243.480001 111.9,243.32 L113.7,244.88 C114.020002,244.159996 114.359998,243.700001 114.72,243.5 C115.080002,243.299999 115.479998,243.22 115.92,243.26 C116.360002,243.3 116.819998,243.379999 117.3,243.5 C117.780002,243.620001 118.259998,243.560001 118.74,243.32 L127.14,246.32 C127.460002,246.32 127.779998,246.260001 128.1,246.14 C128.420002,246.019999 128.659999,245.96 128.82,245.96 L135.363496,251.313769 L135.363496,251.313769 Z M138.78,257.6 C138.619999,257.760001 138.54,257.88 138.54,257.96 C138.54,258.04 138.5,258.159999 138.42,258.32 C138.34,258.480001 138.3,258.6 138.3,258.68 C138.460001,258.68 138.639999,258.540001 138.84,258.26 C139.040001,257.979999 139.020001,257.760001 138.78,257.6 Z M127.62,251.96 L127.02,251.72 L126.54,252.68 L127.14,252.92 L127.62,251.96 Z M138.66,263.96 C138.66,263.799999 138.460002,263.600001 138.06,263.36 C137.659998,263.119999 137.340001,263 137.1,263 L137.1,264.44 C137.340001,264.44 137.619998,264.4 137.94,264.32 C138.260002,264.24 138.499999,264.120001 138.66,263.96 Z M146.7,275.48 L146.7,274.76 L145.26,274.76 L145.26,275.48 L146.7,275.48 Z M121.14,250.64 C120.979999,249.999997 120.700002,249.460002 120.3,249.02 C119.899998,248.579998 119.580001,248.36 119.34,248.36 C119.580001,248.760002 119.899998,249.179998 120.3,249.62 C120.700002,250.060002 120.979999,250.399999 121.14,250.64 Z M133.62,262.52 C133.219998,262.119998 132.800002,261.780001 132.36,261.5 C131.919998,261.219999 131.620001,261.08 131.46,261.08 C131.299999,261.240001 131.120001,261.479998 130.92,261.8 C130.719999,262.120002 130.62,262.359999 130.62,262.52 L133.62,262.52 Z M117.78,246.56 C117.379998,246.399999 116.960002,246.200001 116.52,245.96 C116.079998,245.719999 115.740001,245.6 115.5,245.6 C115.5,246.000002 115.579999,246.359998 115.74,246.68 L115.98,247.16 L117.78,246.56 Z M128.46,259.88 C128.860002,259.319997 128.900002,258.840002 128.58,258.44 C128.259998,258.039998 128.1,257.480004 128.1,256.76 C127.939999,257.160002 127.9,257.679997 127.98,258.32 C128.06,258.960003 128.219999,259.479998 128.46,259.88 Z M143.7,274.52 L143.46,274.04 L142.62,274.52 L142.62,275 L143.7,274.52 Z M124.74,254.12 L123.3,254.12 C122.739997,254.440002 122.539999,254.859997 122.7,255.38 C122.860001,255.900003 122.94,256.239999 122.94,256.4 C123.340002,256.239999 123.699998,255.920002 124.02,255.44 C124.340002,254.959998 124.579999,254.520002 124.74,254.12 Z M137.1,267.92 L135.66,267.44 L135.66,268.04 L136.86,268.52 L137.1,267.92 Z M119.94,253.28 L119.46,255.56 C119.780002,255.56 119.94,255.280003 119.94,254.72 L119.94,253.28 Z M144.3,278.72 C144.3,278.559999 144.000003,278.360001 143.4,278.12 C142.799997,277.879999 142.5,277.959998 142.5,278.36 C143.460005,278.36 144.059999,278.479999 144.3,278.72 Z M133.14,266.12 C132.739998,266.280001 132.300002,266.559998 131.82,266.96 C131.339998,267.360002 130.900002,267.759998 130.5,268.16 C130.660001,268.320001 130.899998,268.479999 131.22,268.64 C131.380001,268.72 131.5,268.76 131.58,268.76 C131.980002,268.359998 132.339998,267.860003 132.66,267.26 C132.980002,266.659997 133.14,266.280001 133.14,266.12 Z M115.14,249.56 L113.22,249.56 L113.22,251 C113.620002,251 113.979998,250.860001 114.3,250.58 C114.620002,250.299999 114.899999,249.960002 115.14,249.56 Z M134.22,270.68 C134.380001,270.519999 134.400001,270.260002 134.28,269.9 C134.159999,269.539998 134.020001,269.280001 133.86,269.12 C133.619999,269.360001 133.46,269.559999 133.38,269.72 C133.3,269.880001 133.26,270 133.26,270.08 C133.34,270.240001 133.539998,270.399999 133.86,270.56 C134.020001,270.64 134.14,270.68 134.22,270.68 Z M137.46,274.4 C137.46,272.47999 137.300002,271.360002 136.98,271.04 C136.9,271.04 136.700002,271.119999 136.38,271.28 C136.219999,271.36 136.1,271.44 136.02,271.52 L136.38,274.88 L137.46,274.4 Z M125.46,259.52 C125.299999,259.52 125.000002,259.460001 124.56,259.34 C124.119998,259.219999 123.820001,259.16 123.66,259.16 C123.66,259.320001 123.719999,259.599998 123.84,260 C123.960001,260.400002 124.099999,260.679999 124.26,260.84 L124.26,261.92 C124.099999,262.080001 124.079999,262.379998 124.2,262.82 C124.320001,263.260002 124.579998,263.559999 124.98,263.72 C125.220001,263.079997 125.399999,262.340004 125.52,261.5 C125.640001,260.659996 125.620001,260.000002 125.46,259.52 Z M144.78,284.12 C144.78,283.959999 144.74,283.720002 144.66,283.4 C144.58,283.079998 144.420001,282.840001 144.18,282.68 C144.1,282.76 143.980001,282.959998 143.82,283.28 C143.74,283.440001 143.7,283.56 143.7,283.64 C143.78,283.800001 143.879999,283.88 144,283.88 C144.120001,283.88 144.259999,283.92 144.42,284 C144.580001,284.08 144.7,284.12 144.78,284.12 Z M141.3,283.76 C141.780002,283.279998 141.960001,282.640004 141.84,281.84 C141.719999,281.039996 141.460002,280.520001 141.06,280.28 C140.899999,280.920003 140.86,281.559997 140.94,282.2 C141.02,282.840003 141.139999,283.359998 141.3,283.76 Z M131.7,272.84 C131.7,272.679999 131.540002,272.480001 131.22,272.24 C130.899998,271.999999 130.540002,271.959999 130.14,272.12 L131.1,273.8 C131.18,273.639999 131.26,273.54 131.34,273.5 C131.42,273.46 131.5,273.360001 131.58,273.2 C131.66,273.12 131.7,273.000001 131.7,272.84 Z M118.98,259.64 L116.82,259.16 L116.34,260.24 L118.98,259.64 Z M135.9,277.4 C135.739999,277.239999 135.440002,277.12 135,277.04 C134.559998,276.96 134.260001,276.92 134.1,276.92 L134.46,279.08 C134.860002,278.919999 135.159999,278.640002 135.36,278.24 C135.560001,277.839998 135.739999,277.560001 135.9,277.4 Z M114.3,257.36 C114.3,256.959998 114.26,256.560002 114.18,256.16 C114.1,255.759998 113.980001,255.480001 113.82,255.32 L112.5,255.32 C112.660001,255.960003 112.839999,256.599997 113.04,257.24 C113.240001,257.880003 113.34,258.479997 113.34,259.04 C113.500001,258.879999 113.699999,258.600002 113.94,258.2 C114.180001,257.799998 114.3,257.520001 114.3,257.36 Z M137.82,282.92 C137.499998,282.039996 137.36,281.320003 137.4,280.76 C137.44,280.199997 137.42,279.800001 137.34,279.56 L136.74,280.16 C136.499999,280.400001 136.38,280.759998 136.38,281.24 C136.38,281.720002 136.559998,282.079999 136.92,282.32 L137.82,282.92 Z M143.7,287 L141.42,286.52 L141.42,287.96 C141.820002,287.96 142.239998,287.840001 142.68,287.6 C143.120002,287.359999 143.459999,287.160001 143.7,287 Z M139.38,286.4 C139.38,285.759997 139.220002,285.280002 138.9,284.96 C138.419998,285.280002 138.16,285.739997 138.12,286.34 C138.08,286.940003 138.02,287.359999 137.94,287.6 L139.38,286.4 Z M108.54,256.28 C108.379999,256.039999 108.140002,255.88 107.82,255.8 C107.499998,255.72 107.260001,255.68 107.1,255.68 L107.1,257.12 C107.420002,257.04 107.659999,256.940001 107.82,256.82 C107.980001,256.699999 108.139999,256.6 108.3,256.52 C108.460001,256.44 108.54,256.36 108.54,256.28 Z M136.74,285.2 C136.339998,284.799998 135.900002,284.460001 135.42,284.18 C134.939998,283.899999 134.620001,283.76 134.46,283.76 L134.1,285.2 L136.74,285.2 Z M108.9,259.16 L107.46,259.16 C107.46,259.560002 107.5,259.999998 107.58,260.48 C107.66,260.960002 107.779999,261.399998 107.94,261.8 C108.100001,261.639999 108.259999,261.260003 108.42,260.66 C108.580001,260.059997 108.739999,259.560002 108.9,259.16 Z M105.06,258.2 C104.899999,257.799998 104.660002,257.62 104.34,257.66 C104.019998,257.7 103.740001,257.72 103.5,257.72 L105.06,258.2 Z M132.06,286.28 C131.579998,285.399996 131.100002,284.96 130.62,284.96 L130.62,286.4 C131.100002,286.880002 131.579998,286.840003 132.06,286.28 Z M137.46,292.88 L134.7,288.8 C134.059997,288.960001 133.440003,289.179999 132.84,289.46 C132.239997,289.740001 131.860001,290.079998 131.7,290.48 L133.02,293 C133.260001,292.439997 133.42,291.940002 133.5,291.5 C133.58,291.059998 133.819998,290.680002 134.22,290.36 C134.860003,291.000003 135.339998,291.659997 135.66,292.34 C135.980002,293.020003 136.579996,293.200002 137.46,292.88 Z M100.14,255.32 L99.66,255.32 L99.18,256.64 L99.66,256.76 L100.14,255.32 Z M106.26,262.88 C106.26,262.719999 106.180001,262.420002 106.02,261.98 C105.859999,261.539998 105.78,261.240001 105.78,261.08 L104.34,261.08 C104.500001,261.480002 104.799998,261.899998 105.24,262.34 C105.680002,262.780002 106.019999,262.96 106.26,262.88 Z M99.66,261.68 C98.9399964,261.119997 98.4000018,260.600002 98.04,260.12 C97.6799982,259.639998 97.0600044,259.599998 96.18,260 C96.4200012,260.160001 96.6599988,260.439998 96.9,260.84 C97.1400012,261.240002 97.3399992,261.519999 97.5,261.68 L99.66,261.68 Z M133.98,297.68 L132.54,297.68 L132.06,299.12 L133.5,299.12 C133.820002,298.799998 133.98,298.320003 133.98,297.68 Z M92.94,258.32 C92.7799992,258.32 92.6600004,258.459999 92.58,258.74 C92.4999996,259.020001 92.46,259.239999 92.46,259.4 C92.6200008,259.4 92.7799992,259.220002 92.94,258.86 C93.1000008,258.499998 93.1000008,258.32 92.94,258.32 Z M101.22,266.36 C100.579997,266.119999 99.960003,265.780002 99.36,265.34 C98.759997,264.899998 98.1400032,264.480002 97.5,264.08 C97.3399992,264.480002 97.060002,264.859998 96.66,265.22 C96.259998,265.580002 95.9800008,265.959998 95.82,266.36 L101.22,266.36 Z M90.54,257.6 L89.94,257.6 L89.58,259.4 L90.06,259.4 L90.54,257.6 Z M129.78,297.56 L129.78,294.2 C129.539999,294.2 129.340001,294.279999 129.18,294.44 L129.06,294.56 C129.220001,295.840006 128.580007,296.959995 127.14,297.92 C126.659998,298.080001 126.42,298.479997 126.42,299.12 L129.78,297.56 Z M97.38,269.36 L93.54,268.76 L93.54,269.84 L97.38,269.36 Z M129.9,303.2 L129.3,303.08 L128.82,304.04 L129.42,304.28 L129.9,303.2 Z M91.14,266.36 L91.14,265.04 C90.8199984,264.639998 90.5200014,264.260002 90.24,263.9 C89.9599986,263.539998 89.7400008,263.280001 89.58,263.12 C89.4199992,263.12 89.2800006,263.1 89.16,263.06 C89.0399994,263.02 88.9000008,263 88.74,263 L88.14,263 C88.540002,263.640003 88.9599978,264.279997 89.4,264.92 C89.8400022,265.560003 90.06,266.159997 90.06,266.72 C90.3800016,266.72 90.6199992,266.68 90.78,266.6 C90.9400008,266.52 91.0599996,266.44 91.14,266.36 Z M98.94,273.32 L98.94,272.24 L98.34,271.88 C97.939998,272.280002 97.4800026,272.639998 96.96,272.96 C96.4399974,273.280002 96.2199996,273.639998 96.3,274.04 C96.700002,274.200001 97.199997,274.180001 97.8,273.98 C98.400003,273.779999 98.7799992,273.560001 98.94,273.32 Z M125.1,296.6 C124.939999,296.6 124.660002,296.540001 124.26,296.42 C123.859998,296.299999 123.260004,296.24 122.46,296.24 C122.700001,297.840008 121.940009,299.159995 120.18,300.2 L121.02,300.56 C121.740004,300.159998 122.479996,299.500005 123.24,298.58 C124.000004,297.659995 124.619998,297.000002 125.1,296.6 Z M124.74,302 L122.82,302 L123.3,303.44 C123.460001,303.44 123.699998,303.300001 124.02,303.02 C124.340002,302.739999 124.579999,302.400002 124.74,302 Z M94.86,273.2 L94.26,272.96 L93.54,274.28 L94.14,274.52 L94.86,273.2 Z M91.62,274.4 L91.62,272.72 C91.3799988,272.559999 91.0400022,272.380001 90.6,272.18 C90.1599978,271.979999 89.8600008,271.88 89.7,271.88 C89.7,272.280002 89.600001,272.639998 89.4,272.96 C89.199999,273.280002 88.9800012,273.44 88.74,273.44 C88.4199984,273.039998 87.9400032,273.079998 87.3,273.56 C87.700002,273.720001 88.199997,274.039998 88.8,274.52 C89.400003,275.000002 89.9399976,275.24 90.42,275.24 C90.9000024,275.24 91.1599998,275.140001 91.2,274.94 C91.2400002,274.739999 91.3799988,274.560001 91.62,274.4 Z M122.82,305.84 L121.38,305.84 L121.86,307.64 C122.020001,307.479999 122.219999,307.180002 122.46,306.74 C122.700001,306.299998 122.82,306.000001 122.82,305.84 Z M92.94,279.44 C93.1800012,279.039998 93.1400016,278.620002 92.82,278.18 C92.4999984,277.739998 92.2600008,277.440001 92.1,277.28 L92.46,279.92 L92.94,279.44 Z M94.26,282.32 L92.1,282.32 L91.62,283.76 L93.06,283.76 L93.78,283.04 C94.1000016,282.719998 94.26,282.480001 94.26,282.32 Z M119.82,311.12 L119.82,308.48 L119.22,308.48 L119.22,311.12 L119.82,311.12 Z M91.26,280.76 C91.0199988,280.439998 90.8800002,280.080002 90.84,279.68 C90.7999998,279.279998 90.78,279.000001 90.78,278.84 L89.34,278.84 L89.34,281.6 C88.6999968,281.920002 88.1400024,282.1 87.66,282.14 C87.1799976,282.18 86.8200012,282.2 86.58,282.2 C86.7400008,282.440001 87.0399978,282.759998 87.48,283.16 C87.9200022,283.560002 88.339998,283.76 88.74,283.76 L91.26,280.76 Z M106.98,300.68 C106.819999,300.279998 106.580002,300.000001 106.26,299.84 C105.939998,299.679999 105.700001,299.6 105.54,299.6 L105.18,300.68 L106.98,300.68 Z M96.66,290 C96.66,289.519998 96.6000006,289.24 96.48,289.16 C96.3599994,289.08 96.2200008,288.960001 96.06,288.8 C95.659998,288.960001 95.3200014,289.179999 95.04,289.46 C94.7599986,289.740001 94.6599996,290.119998 94.74,290.6 L94.74,291.8 C95.140002,291.72 95.5599978,291.500002 96,291.14 C96.4400022,290.779998 96.66,290.400002 96.66,290 Z M93.06,287.12 L92.22,286.16 C92.1399996,286.16 91.9400016,286.239999 91.62,286.4 C91.4599992,286.48 91.3400004,286.56 91.26,286.64 C91.3400004,286.800001 91.4199996,286.9 91.5,286.94 C91.5800004,286.98 91.62,287.079999 91.62,287.24 L91.62,287.6 C92.020002,287.6 92.3799984,287.520001 92.7,287.36 C92.8600008,287.28 92.9799996,287.2 93.06,287.12 Z M106.62,305.84 L106.5,305.24 L105.54,305.72 L105.54,306.32 L106.62,305.84 Z M99.3,295.88 C99.1399992,295.8 99.0400002,295.74 99,295.7 C98.9599998,295.66 98.8600008,295.6 98.7,295.52 C98.5399992,295.44 98.4200004,295.4 98.34,295.4 C97.6999968,295.560001 97.1000028,295.879998 96.54,296.36 C95.9799972,296.840002 95.500002,297.04 95.1,296.96 L95.1,298.4 C95.4200016,298.4 95.7999978,298.300001 96.24,298.1 C96.6800022,297.899999 97.1199978,297.660001 97.56,297.38 C98.0000022,297.099999 98.3999982,296.820001 98.76,296.54 C99.1200018,296.259999 99.3,296.040001 99.3,295.88 Z M86.2974919,287.915623 C86.3455191,288.244274 86.4396878,288.619063 86.58,289.04 C86.7400008,289.520002 86.9599986,289.979998 87.24,290.42 C87.5200014,290.860002 87.8999976,291.08 88.38,291.08 L90.54,291.08 C91.0200024,291.560002 91.26,291.959998 91.26,292.28 C91.9000032,291.799998 92.3799984,291.160004 92.7,290.36 L89.94,290.36 C89.3799972,290.36 88.8200028,290.220001 88.26,289.94 C87.6999972,289.659999 87.3400008,288.920006 87.18,287.72 C87.0199992,287.559999 86.8200012,287.599999 86.58,287.84 C86.4513491,287.968651 86.35718,287.993859 86.2974919,287.915623 L86.2974919,287.915623 Z M101.58,300.56 L97.38,299.72 C97.5400008,300.120002 97.8399978,300.459999 98.28,300.74 C98.7200022,301.020001 99.139998,301.16 99.54,301.16 C99.940002,301.16 100.339998,301.100001 100.74,300.98 C101.140002,300.859999 101.419999,300.720001 101.58,300.56 Z M94.62,296.48 C94.62,296.079998 94.420002,295.740001 94.02,295.46 C93.619998,295.179999 93.3400008,295.04 93.18,295.04 C93.18,295.200001 93.379998,295.479998 93.78,295.88 C94.180002,296.280002 94.4599992,296.48 94.62,296.48 Z M101.34,306.56 C101.740002,306.319999 101.94,305.980002 101.94,305.54 C101.94,305.099998 101.740002,304.800001 101.34,304.64 L101.34,306.56 Z M93.9,300.68 C93.6599988,300.279998 93.4200012,299.780003 93.18,299.18 L92.58,297.68 C92.4199992,298.080002 92.439999,298.659996 92.64,299.42 C92.840001,300.180004 93.2599968,300.6 93.9,300.68 Z M89.22,294.92 C89.22,294.759999 89.120001,294.520002 88.92,294.2 C88.719999,293.879998 88.5400008,293.640001 88.38,293.48 C87.979998,293.640001 87.6400014,293.919998 87.36,294.32 C87.0799986,294.720002 86.9799996,295.039999 87.06,295.28 L89.22,294.92 Z M227.1,282.8 C227.1,283.840005 226.740004,284.559998 226.02,284.96 C225.299996,285.360002 224.620003,286.039995 223.98,287 C224.140001,287.160001 224.399998,287.180001 224.76,287.06 C225.120002,286.939999 225.499998,286.88 225.9,286.88 C225.9,287.040001 225.959999,287.14 226.08,287.18 C226.200001,287.22 226.26,287.479998 226.26,287.96 C226.26,288.840004 225.840004,289.379999 225,289.58 C224.159996,289.780001 223.580002,289.999999 223.26,290.24 C223.420001,290.640002 223.639999,291.039998 223.92,291.44 C224.200001,291.840002 224.34,292.239998 224.34,292.64 C224.34,293.520004 224.140002,294.079999 223.74,294.32 C223.339998,294.560001 222.780004,295.079996 222.06,295.88 C222.300001,296.040001 222.559999,296.279998 222.84,296.6 C223.120001,296.920002 223.26,297.319998 223.26,297.8 C223.26,298.200002 223.000003,298.599998 222.48,299 C221.959997,299.400002 221.580001,299.799998 221.34,300.2 C221.099999,300.680002 220.720003,301.339996 220.2,302.18 C219.679997,303.020004 219.100003,303.799996 218.46,304.52 C218.059998,304.920002 217.580003,305.439997 217.02,306.08 C216.459997,306.720003 215.880003,307.339997 215.28,307.94 C214.679997,308.540003 214.140002,309.039998 213.66,309.44 C213.179998,309.840002 212.820001,310.04 212.58,310.04 C212.179998,310.04 211.860001,309.820002 211.62,309.38 C211.379999,308.939998 211.060002,308.360004 210.66,307.64 L210.3,307.64 C210.059999,307.64 209.9,307.759999 209.82,308 C209.74,308.160001 209.759999,308.24 209.88,308.24 C210.000001,308.24 210.06,308.479998 210.06,308.96 L210.06,311.48 L199.98,314.96 C199.579998,314.96 199.120003,315.159998 198.6,315.56 C198.079997,315.960002 197.580002,316.16 197.1,316.16 L187.5,316.16 L176.58,309.56 C175.939997,310.200003 175.460002,310.619999 175.14,310.82 C174.819998,311.020001 174.540001,311.14 174.3,311.18 C174.059999,311.22 173.820001,311.22 173.58,311.18 C173.339999,311.14 173.020002,311.239999 172.62,311.48 C172.62,311.880002 172.819998,312.259998 173.22,312.62 C173.620002,312.980002 173.82,313.479997 173.82,314.12 L172.26,314.96 C171.939998,314.719999 171.540002,314.6 171.06,314.6 L164.82,317.36 L163.14,317.36 C162.659998,316.879998 162.619998,316.200004 163.02,315.32 C162.779999,315.24 162.440002,315.120001 162,314.96 C161.559998,314.799999 161.100002,314.580001 160.62,314.3 C160.139998,314.019999 159.740002,313.680002 159.42,313.28 C159.099998,312.879998 158.94,312.360003 158.94,311.72 C158.94,311.319998 158.98,310.880002 159.06,310.4 C159.14,309.919998 159.14,309.480002 159.06,309.08 C158.739998,308.679998 158.300003,308.200003 157.74,307.64 C157.179997,307.079997 156.9,306.600002 156.9,306.2 C156.9,305.719998 156.959999,305.44 157.08,305.36 C157.200001,305.28 157.339999,305.160001 157.5,305 C157.58,305.240001 157.819998,305.36 158.22,305.36 L158.58,305.36 C158.740001,305.199999 158.82,305.16 158.82,305.24 L158.82,304.64 C158.82,304.159998 158.560003,303.640003 158.04,303.08 C157.519997,302.519997 157.22,302.040002 157.14,301.64 C157.22,301.239998 157.24,300.620004 157.2,299.78 C157.16,298.939996 156.660005,298.160004 155.7,297.44 C155.940001,297.039998 156.199999,296.700001 156.48,296.42 C156.760001,296.139999 156.9,295.760002 156.9,295.28 C156.9,294.879998 156.640003,294.500002 156.12,294.14 C155.599997,293.779998 155.34,293.360002 155.34,292.88 C155.34,292.399998 155.559998,291.620005 156,290.54 C156.440002,289.459995 156.739999,288.480004 156.9,287.6 L154.62,281.84 L155.82,272.6 L158.1,271.52 C157.459997,270.639996 156.840003,269.880003 156.24,269.24 C155.639997,268.599997 155.34,267.720006 155.34,266.6 C155.34,265.479994 155.32,264.580003 155.28,263.9 C155.24,263.219997 155.539997,262.440004 156.18,261.56 L156.18,248.96 C155.779998,248.479998 155.440001,247.840004 155.16,247.04 C154.879999,246.239996 154.540002,245.440004 154.14,244.64 L154.14,235.28 C154.380001,235.119999 154.639999,234.860002 154.92,234.5 C155.200001,234.139998 155.34,233.760002 155.34,233.36 L155.34,230 C155.34,229.599998 155.280001,229.080003 155.16,228.44 C155.039999,227.799997 155.179998,227.360001 155.58,227.12 C156.300004,226.559997 157.339993,226.020003 158.7,225.5 C160.060007,224.979997 160.979998,224.72 161.46,224.72 C162.020003,224.72 162.519998,224.799999 162.96,224.96 C163.400002,225.120001 163.819998,225.2 164.22,225.2 C164.22,225.28 164.299999,225.559998 164.46,226.04 C164.620001,226.520002 164.420003,226.919998 163.86,227.24 C164.180002,227.640002 164.739996,227.84 165.54,227.84 L165.66,227.72 C165.74,227.64 165.859999,227.440002 166.02,227.12 C166.1,226.959999 166.080001,226.700002 165.96,226.34 C165.839999,225.979998 165.78,225.720001 165.78,225.56 L173.34,225.56 C173.740002,225.960002 174.139998,226.239999 174.54,226.4 L175.74,226.88 C176.380003,227.280002 176.819999,227.799997 177.06,228.44 C177.300001,229.080003 177.499999,229.719997 177.66,230.36 C177.66,230.520001 177.62,230.759998 177.54,231.08 C177.46,231.400002 177.499999,232.039995 177.66,233 C177.499999,233.640003 177.320001,234.299997 177.12,234.98 C176.919999,235.660003 176.620002,236.319997 176.22,236.96 L176.22,248.84 C176.540002,249.480003 177.099996,249.8 177.9,249.8 C178.380002,249.8 178.839998,249.520003 179.28,248.96 C179.720002,248.399997 180.139998,247.800003 180.54,247.16 L183.3,247.16 L187.14,245.96 L194.7,244.4 L202.02,246.68 C202.340002,246.68 202.52,246.620001 202.56,246.5 C202.6,246.379999 202.859998,246.32 203.34,246.32 C203.820002,246.32 204.459996,246.619997 205.26,247.22 C206.060004,247.820003 206.779997,248.199999 207.42,248.36 C207.259999,248.760002 207.000002,249.099999 206.64,249.38 C206.279998,249.660001 206.020001,249.999998 205.86,250.4 C206.020001,250.560001 206.08,250.64 206.04,250.64 L206.7,250.64 C207.100002,250.64 207.559997,250.380003 208.08,249.86 C208.600003,249.339997 209.099998,249.08 209.58,249.08 C209.980002,249.08 210.519997,249.339997 211.2,249.86 C211.880003,250.380003 212.559997,250.999996 213.24,251.72 C213.920003,252.440004 214.539997,253.139997 215.1,253.82 C215.660003,254.500003 216.059999,254.999998 216.3,255.32 C216.540001,255.720002 216.879998,255.979999 217.32,256.1 C217.760002,256.220001 218.139998,256.479998 218.46,256.88 C218.54,257.040001 218.58,257.219999 218.58,257.42 C218.58,257.620001 218.62,257.839999 218.7,258.08 C219.180002,258.720003 219.799996,259.359997 220.56,260 C221.320004,260.640003 221.899998,261.399996 222.3,262.28 C222.540001,262.760002 222.799999,263.299997 223.08,263.9 C223.360001,264.500003 223.619999,265.099997 223.86,265.7 C224.100001,266.300003 224.319999,266.859997 224.52,267.38 C224.720001,267.900003 224.82,268.279999 224.82,268.52 L224.82,271.16 L227.1,276.92 L227.1,282.8 Z M218.7,264.08 L218.7,261.44 L218.1,261.44 L218.1,264.08 L218.7,264.08 Z M215.46,259.76 C215.299999,259.359998 215.060002,259.16 214.74,259.16 C214.419998,259.16 214.180001,259.359998 214.02,259.76 L215.46,259.76 Z M215.1,263.6 C215.1,263.439999 215.040001,263.140002 214.92,262.7 C214.799999,262.259998 214.660001,261.960001 214.5,261.8 L214.02,264.08 C214.180001,264.08 214.419998,264.000001 214.74,263.84 C214.900001,263.76 215.02,263.68 215.1,263.6 Z M224.34,275.36 L224.34,274.76 L221.34,274.76 L221.34,275.36 L224.34,275.36 Z M219.66,273.68 C219.259998,273.119997 219.02,272.600002 218.94,272.12 C218.86,271.639998 218.8,271.220002 218.76,270.86 C218.72,270.499998 218.640001,270.120002 218.52,269.72 C218.399999,269.319998 218.140002,268.880002 217.74,268.4 L217.74,272.48 L219.66,273.68 Z M201.66,253.52 L201.06,252.62 C200.819999,252.259998 200.7,251.960001 200.7,251.72 C200.539999,252.120002 200.280002,252.579997 199.92,253.1 C199.559998,253.620003 199.42,254.079998 199.5,254.48 C199.660001,254.239999 200.019997,254.060001 200.58,253.94 C201.140003,253.819999 201.499999,253.680001 201.66,253.52 Z M213.54,264.56 C213.379999,264.56 213.080002,264.639999 212.64,264.8 C212.199998,264.960001 211.860001,265.119999 211.62,265.28 L211.62,266.72 C211.780001,266.880001 211.9,266.96 211.98,266.96 C212.06,266.96 212.179999,267 212.34,267.08 C212.500001,267.16 212.62,267.2 212.7,267.2 C212.860001,267.039999 213.039999,266.700003 213.24,266.18 C213.440001,265.659997 213.54,265.120003 213.54,264.56 Z M205.38,259.76 L205.38,257.24 C205.219999,257.079999 205.000001,256.900001 204.72,256.7 C204.439999,256.499999 204.220001,256.4 204.06,256.4 C204.06,257.040003 204.119999,257.719996 204.24,258.44 C204.360001,259.160004 204.739997,259.599999 205.38,259.76 Z M208.74,262.76 L208.14,262.52 L207.66,263.48 L208.26,263.72 L208.74,262.76 Z M209.34,266 C208.939998,264.719994 208.180006,264.08 207.06,264.08 C206.579998,264.08 206.240001,264.219999 206.04,264.5 C205.839999,264.780001 205.660001,265.119998 205.5,265.52 L209.34,266 Z M193.86,251.72 L193.86,249.56 L192.18,249.08 L191.22,250.04 C191.620002,250.440002 192.059998,250.839998 192.54,251.24 C193.020002,251.640002 193.459998,251.8 193.86,251.72 Z M220.86,279.08 C219.659994,278.039995 218.860002,276.920006 218.46,275.72 L217.86,276.32 C217.619999,276.560001 217.5,276.919998 217.5,277.4 C217.5,277.960003 217.799997,278.519997 218.4,279.08 C219.000003,279.640003 219.499998,279.92 219.9,279.92 C220.300002,279.92 220.579999,279.800001 220.74,279.56 C220.82,279.399999 220.86,279.240001 220.86,279.08 Z M214.74,272.36 C214.499999,271.959998 214.160002,271.580002 213.72,271.22 C213.279998,270.859998 212.840002,270.560001 212.4,270.32 C211.959998,270.079999 211.560002,269.880001 211.2,269.72 L210.66,269.48 C210.179998,269.48 209.760002,269.679998 209.4,270.08 C209.039998,270.480002 208.9,270.759999 208.98,270.92 C209.380002,271.160001 209.699999,271.180001 209.94,270.98 C210.180001,270.779999 210.579997,270.68 211.14,270.68 C211.460002,270.68 211.999996,270.919998 212.76,271.4 C213.520004,271.880002 214.179997,272.199999 214.74,272.36 Z M202.02,260.48 C201.619998,260.079998 201.140003,259.88 200.58,259.88 L200.58,261.32 C200.820001,261.24 201.019999,261.140001 201.18,261.02 C201.340001,260.899999 201.499999,260.8 201.66,260.72 C201.820001,260.64 201.94,260.56 202.02,260.48 Z M203.94,261.8 L202.14,261.8 C201.979999,262.200002 201.720002,262.579998 201.36,262.94 C200.999998,263.300002 200.86,263.799997 200.94,264.44 C201.580003,264.039998 202.199997,263.600002 202.8,263.12 C203.400003,262.639998 203.779999,262.200002 203.94,261.8 Z M201.3,256.88 L197.82,256.88 L194.34,262.28 C194.34,262.440001 194.419999,262.679998 194.58,263 C194.66,263.160001 194.74,263.28 194.82,263.36 C195.220002,262.719997 195.679997,262.020004 196.2,261.26 C196.720003,260.499996 197.499995,260.12 198.54,260.12 L198.18,258.2 C198.740003,257.799998 199.299997,257.540001 199.86,257.42 C200.420003,257.299999 200.899998,257.120001 201.3,256.88 Z M190.38,254.48 C190.540001,254.079998 190.560001,253.640002 190.44,253.16 C190.319999,252.679998 190.140001,252.360001 189.9,252.2 C189.739999,252.2 189.520001,252.359998 189.24,252.68 C188.959999,253.000002 188.700001,253.279999 188.46,253.52 C188.700001,253.680001 189.039998,253.879999 189.48,254.12 C189.920002,254.360001 190.219999,254.48 190.38,254.48 Z M173.7,239 C174.260003,238.519998 174.260003,238.000003 173.7,237.44 C173.539999,237.44 173.280002,237.639998 172.92,238.04 C172.559998,238.440002 172.38,238.759999 172.38,239 L173.7,239 Z M185.46,249.68 L183.18,249.08 C183.18,249.400002 183.419998,249.58 183.9,249.62 C184.380002,249.66 184.899997,249.68 185.46,249.68 Z M191.94,257 C191.94,256.839999 191.740002,256.640001 191.34,256.4 C190.939998,256.159999 190.660001,256.04 190.5,256.04 L190.5,257.36 L190.98,257.96 L191.94,257 Z M217.86,284.12 L217.62,283.64 L216.78,284.12 L216.78,284.6 L217.86,284.12 Z M219.9,287.96 L219.9,286.16 L219.18,286.16 L219.18,287.96 L219.9,287.96 Z M186.06,254.48 C186.220001,254.319999 186.240001,254.060002 186.12,253.7 C185.999999,253.339998 185.820001,253.080001 185.58,252.92 C185.5,253 185.380001,253.199998 185.22,253.52 C185.14,253.680001 185.1,253.8 185.1,253.88 C185.18,254.040001 185.379998,254.199999 185.7,254.36 C185.860001,254.44 185.98,254.48 186.06,254.48 Z M213.18,283.76 L213.18,278.12 C213.019999,277.959999 212.780002,277.84 212.46,277.76 C212.139998,277.68 211.900001,277.64 211.74,277.64 L211.26,281.72 C211.660002,282.120002 211.979999,282.519998 212.22,282.92 C212.460001,283.320002 212.779998,283.599999 213.18,283.76 Z M170.34,235.64 C169.939998,235.64 169.640001,235.68 169.44,235.76 C169.239999,235.84 168.900002,235.88 168.42,235.88 C167.939998,235.88 167.540002,235.760001 167.22,235.52 C166.899998,235.279999 166.460003,235.16 165.9,235.16 C165.739999,235.400001 165.64,235.879996 165.6,236.6 C165.56,237.320004 165.54,237.879998 165.54,238.28 C166.260004,237.639997 167.059996,237.140002 167.94,236.78 C168.820004,236.419998 169.619996,236.040002 170.34,235.64 Z M170.34,242 L169.86,240.2 C169.699999,240.360001 169.420002,240.659998 169.02,241.1 C168.619998,241.540002 168.42,241.839999 168.42,242 C168.660001,242.160001 168.999998,242.2 169.44,242.12 C169.880002,242.04 170.179999,242 170.34,242 Z M179.7,252.08 C179.940001,252.08 180.08,251.900002 180.12,251.54 C180.16,251.179998 179.900003,251 179.34,251 C179.34,251.480002 179.38,251.76 179.46,251.84 L179.7,252.08 Z M190.02,262.16 C190.02,261.759998 189.820002,261.420001 189.42,261.14 C189.019998,260.859999 188.740001,260.72 188.58,260.72 C188.58,260.880001 188.779998,261.159998 189.18,261.56 C189.580002,261.960002 189.859999,262.16 190.02,262.16 Z M214.5,284.48 L212.82,286.04 C212.099996,285.639998 211.340004,285.639998 210.54,286.04 L210.54,286.76 C210.860002,287.080002 211.97999,287.24 213.9,287.24 C214.300002,286.839998 214.559999,286.340003 214.68,285.74 C214.800001,285.139997 214.740001,284.720001 214.5,284.48 Z M162.78,235.76 L162.3,235.52 L161.82,236.48 L162.3,236.72 L162.78,235.76 Z M186.54,259.64 L185.7,258.8 L184.26,258.8 C184.420001,259.200002 184.719998,259.539999 185.16,259.82 C185.600002,260.100001 185.899999,260.2 186.06,260.12 L186.54,259.64 Z M181.38,256.4 C181.540001,256.239999 181.62,255.980002 181.62,255.62 C181.62,255.259998 181.540001,255.000001 181.38,254.84 L180.42,255.8 C180.5,255.960001 180.699998,256.119999 181.02,256.28 C181.180001,256.36 181.3,256.4 181.38,256.4 Z M168.06,241.4 L166.26,241.4 L166.26,242.84 L167.58,242.84 C167.740001,242.679999 167.86,242.440002 167.94,242.12 C168.02,241.799998 168.06,241.560001 168.06,241.4 Z M208.86,282.32 L206.7,282.32 C206.860001,282.720002 207.139998,283.059999 207.54,283.34 C207.940002,283.620001 208.259999,283.76 208.5,283.76 C208.660001,283.599999 208.76,283.360002 208.8,283.04 C208.84,282.719998 208.86,282.480001 208.86,282.32 Z M162.78,238.52 L162.78,237.2 L162.18,237.2 L162.18,238.52 L162.78,238.52 Z M176.94,251.84 C176.459998,251.679999 175.980002,251.699999 175.5,251.9 C175.019998,252.100001 174.74,252.24 174.66,252.32 C175.060002,252.480001 175.499998,252.500001 175.98,252.38 C176.460002,252.259999 176.779999,252.080001 176.94,251.84 Z M177.18,256.4 C177.18,256.159999 177.16,255.820002 177.12,255.38 C177.08,254.939998 176.980001,254.640001 176.82,254.48 C176.659999,254.48 176.62,254.739997 176.7,255.26 C176.78,255.780003 176.939999,256.159999 177.18,256.4 Z M168.78,248.24 C168.78,246.479991 168.620002,245.480001 168.3,245.24 C168.22,245.24 168.020002,245.319999 167.7,245.48 C167.539999,245.56 167.42,245.64 167.34,245.72 L167.82,248.6 L168.78,248.24 Z M220.14,298.4 L218.7,297.92 L218.7,298.52 L220.02,299 L220.14,298.4 Z M217.02,293.96 C216.619998,293.799999 216.220002,293.480002 215.82,293 C215.419998,292.519998 215.100001,292.160001 214.86,291.92 L214.02,291.92 C214.180001,292.320002 214.419998,292.779997 214.74,293.3 C215.060002,293.820003 215.18,294.279998 215.1,294.68 C214.939999,294.840001 214.700002,294.999999 214.38,295.16 C214.059998,295.320001 213.820001,295.36 213.66,295.28 L213.66,296.84 C213.820001,297.000001 214.039999,297.1 214.32,297.14 C214.600001,297.18 214.859999,297.2 215.1,297.2 C215.260001,296.639997 215.579998,296.100003 216.06,295.58 C216.540002,295.059997 216.859999,294.520003 217.02,293.96 Z M172.74,251.24 C172.74,250.839998 172.600001,250.420002 172.32,249.98 C172.039999,249.539998 171.740002,249.240001 171.42,249.08 L171.42,253.64 L172.74,251.24 Z M157.14,237.08 C157.14,236.919999 157.12,236.660002 157.08,236.3 C157.04,235.939998 156.900001,235.680001 156.66,235.52 C156.499999,235.680001 156.42,235.8 156.42,235.88 C156.42,235.96 156.38,236.079999 156.3,236.24 C156.22,236.400001 156.18,236.52 156.18,236.6 C156.18,236.68 156.379998,236.799999 156.78,236.96 C156.940001,237.04 157.06,237.08 157.14,237.08 Z M180.54,260.24 L180.54,259.16 C180.46,258.999999 180.200002,258.840001 179.76,258.68 C179.319998,258.519999 178.900002,258.44 178.5,258.44 C178.660001,258.840002 178.959998,259.199998 179.4,259.52 C179.840002,259.840002 180.219998,260.079999 180.54,260.24 Z M164.94,243.8 L164.1,242.84 C163.699998,243.080001 163.380001,243.419998 163.14,243.86 C162.899999,244.300002 162.78,244.599999 162.78,244.76 C163.180002,244.76 163.599998,244.660001 164.04,244.46 C164.480002,244.259999 164.779999,244.040001 164.94,243.8 Z M158.94,240.92 L158.94,239.48 L158.34,239.48 L158.34,240.92 L158.94,240.92 Z M212.46,290.12 L210.3,289.52 C209.979998,289.680001 209.580002,289.819999 209.1,289.94 C208.619998,290.060001 208.180002,290.199999 207.78,290.36 L207.78,293.12 C207.78,293.600002 207.859999,293.999998 208.02,294.32 C208.180001,294.640002 208.180001,294.879999 208.02,295.04 C207.699998,295.440002 207.320002,295.799998 206.88,296.12 C206.439998,296.440002 206.26,296.799998 206.34,297.2 L207.66,297.2 C208.620005,296.559997 209.12,295.760005 209.16,294.8 C209.2,293.839995 209.020002,293.160002 208.62,292.76 L208.62,292.16 C209.260003,291.519997 209.899997,291.060001 210.54,290.78 C211.180003,290.499999 211.819997,290.280001 212.46,290.12 Z M175.02,258.2 C174.619998,257.239995 173.500009,256.76 171.66,256.76 L171.18,258.2 L175.02,258.2 Z M160.74,246.2 C160.74,246.12 160.660001,245.920002 160.5,245.6 C160.42,245.439999 160.34,245.32 160.26,245.24 C160.099999,245.24 159.860002,245.319999 159.54,245.48 C159.379999,245.56 159.26,245.64 159.18,245.72 C159.26,245.880001 159.32,245.98 159.36,246.02 C159.4,246.06 159.46,246.159999 159.54,246.32 C159.62,246.480001 159.66,246.6 159.66,246.68 C159.820001,246.68 160.059998,246.600001 160.38,246.44 C160.540001,246.36 160.66,246.28 160.74,246.2 Z M169.5,254.12 C169.259999,254.360001 168.920002,254.819997 168.48,255.5 C168.039998,256.180003 167.740001,256.839997 167.58,257.48 C168.060002,256.919997 168.499998,256.320003 168.9,255.68 C169.300002,255.039997 169.5,254.520002 169.5,254.12 Z M164.94,251.12 L161.58,251.12 C161.980002,251.520002 162.459997,251.939998 163.02,252.38 C163.580003,252.820002 164.179997,253.239998 164.82,253.64 C164.980001,253.479999 165.04,253.060003 165,252.38 C164.96,251.699997 164.94,251.280001 164.94,251.12 Z M176.1,262.64 L175.26,262.4 C174.859998,262.640001 174.400003,262.999998 173.88,263.48 C173.359997,263.960002 173.1,264.439998 173.1,264.92 C173.1,265.400002 173.239999,265.779999 173.52,266.06 C173.800001,266.340001 174.139998,266.559999 174.54,266.72 C174.54,266.159997 174.699998,265.500004 175.02,264.74 C175.340002,263.979996 175.699998,263.280003 176.1,262.64 Z M214.38,301.64 C214.139999,301.479999 213.780002,301.4 213.3,301.4 C212.819998,301.4 212.320003,301.42 211.8,301.46 C211.279997,301.5 210.780002,301.579999 210.3,301.7 C209.819998,301.820001 209.500001,301.959999 209.34,302.12 C209.740002,302.12 210.139998,302.08 210.54,302 C210.940002,301.92 211.379998,301.88 211.86,301.88 C212.340002,301.88 212.739998,302.039998 213.06,302.36 L213.78,303.08 C214.180002,302.679998 214.38,302.200003 214.38,301.64 Z M170.82,260.36 C170.579999,260.199999 170.220002,260.020001 169.74,259.82 C169.259998,259.619999 168.820002,259.52 168.42,259.52 L170.22,261.44 C170.3,261.279999 170.38,261.16 170.46,261.08 C170.54,261 170.62,260.880001 170.7,260.72 C170.78,260.559999 170.82,260.44 170.82,260.36 Z M204.3,293.96 L202.5,293.36 L201.66,294.44 C201.820001,294.600001 201.979999,294.879998 202.14,295.28 C202.300001,295.680002 202.459999,295.959999 202.62,296.12 C202.780001,295.959999 202.999999,295.660002 203.28,295.22 C203.560001,294.779998 203.899998,294.360002 204.3,293.96 Z M205.86,275 C204.819995,274.679998 204.100002,274.100004 203.7,273.26 C203.299998,272.419996 202.920002,271.520005 202.56,270.56 C202.199998,269.599995 201.700003,268.680004 201.06,267.8 C200.419997,266.919996 199.380007,266.320002 197.94,266 L192.66,265.64 C192.259998,265.239998 191.920001,264.860002 191.64,264.5 C191.359999,264.139998 191.020002,263.880001 190.62,263.72 C190.139998,264.120002 189.800001,264.479998 189.6,264.8 C189.399999,265.120002 189.100002,265.28 188.7,265.28 C188.219998,265.28 187.96,265.220001 187.92,265.1 C187.88,264.979999 187.620002,264.92 187.14,264.92 C186.659998,264.92 186.260002,265.099998 185.94,265.46 C185.619998,265.820002 185.260002,266 184.86,266 C184.379998,266 184.020001,265.880001 183.78,265.64 C183.539999,265.399999 183.340001,265.28 183.18,265.28 C183.340001,265.760002 183.180002,266.259997 182.7,266.78 C182.219998,267.300003 181.640003,267.819997 180.96,268.34 C180.279997,268.860003 179.560004,269.399997 178.8,269.96 C178.039996,270.520003 177.460002,271.039998 177.06,271.52 C177.06,271.920002 177.1,272.299998 177.18,272.66 C177.26,273.020002 177.26,273.399998 177.18,273.8 C177.019999,274.040001 176.880001,274.319998 176.76,274.64 C176.639999,274.960002 176.500001,275.199999 176.34,275.36 C176.26,275.680002 176.26,276.019998 176.34,276.38 C176.42,276.740002 176.46,277.099998 176.46,277.46 C176.46,277.820002 176.380001,278.179998 176.22,278.54 C176.059999,278.900002 175.740002,279.239998 175.26,279.56 C175.099999,279.319999 174.900001,279.120001 174.66,278.96 C174.419999,278.799999 174.3,278.480002 174.3,278 C174.3,277.519998 174.379999,277.080002 174.54,276.68 C174.700001,276.279998 174.74,275.760003 174.66,275.12 C174.58,274.639998 174.340002,274.080003 173.94,273.44 C173.539998,272.799997 173.180002,272.400001 172.86,272.24 C172.619999,272.800003 172.320002,273.379997 171.96,273.98 C171.599998,274.580003 171.340001,275.079998 171.18,275.48 C171.580002,275.720001 172.019998,275.999998 172.5,276.32 C172.980002,276.640002 173.299999,276.999998 173.46,277.4 C173.059998,277.960003 172.620002,278.539997 172.14,279.14 C171.659998,279.740003 171.340001,280.359997 171.18,281 C171.26,281 171.459998,281.079999 171.78,281.24 C171.940001,281.32 172.06,281.4 172.14,281.48 L174.06,280.28 C174.300001,280.28 174.479999,280.339999 174.6,280.46 C174.720001,280.580001 174.899999,280.64 175.14,280.64 L175.38,281.48 L173.94,287.24 C173.779999,287.24 173.520002,287.28 173.16,287.36 C172.799998,287.44 172.500001,287.599999 172.26,287.84 L175.02,291.44 C174.859999,291.840002 174.74,292.199998 174.66,292.52 C174.58,292.840002 174.460001,293.079999 174.3,293.24 C174.860003,293.400001 175.419997,293.819997 175.98,294.5 C176.540003,295.180003 177.019998,295.839997 177.42,296.48 L180.9,295.28 C181.540003,295.920003 182.039998,296.479998 182.4,296.96 C182.760002,297.440002 183.019999,297.879998 183.18,298.28 C184.540007,298.520001 185.419998,298.979997 185.82,299.66 C186.220002,300.340003 186.779996,300.68 187.5,300.68 C187.980002,300.68 188.26,300.64 188.34,300.56 C188.42,300.48 188.46,300.4 188.46,300.32 L188.46,298.88 C187.979998,298.8 187.520002,298.580002 187.08,298.22 C186.639998,297.859998 186.340001,297.480002 186.18,297.08 C186.340001,296.919999 186.519999,296.780001 186.72,296.66 C186.920001,296.539999 187.259998,296.48 187.74,296.48 C188.860006,296.48 189.899995,296.839996 190.86,297.56 L190.86,298.52 C190.86,298.680001 190.84,298.78 190.8,298.82 C190.76,298.86 190.7,298.9 190.62,298.94 C190.54,298.98 190.5,299.119999 190.5,299.36 C190.5,299.600001 190.54,300.039997 190.62,300.68 L203.58,290.24 L205.14,280.52 C205.14,279.719996 205.060001,279.100002 204.9,278.66 C204.739999,278.219998 204.7,277.800002 204.78,277.4 C204.940001,276.999998 205.179998,276.580002 205.5,276.14 C205.820002,275.699998 205.94,275.320002 205.86,275 Z M204.66,298.64 C204.499999,298.479999 204.140003,298.240002 203.58,297.92 C203.019997,297.599998 202.540002,297.240002 202.14,296.84 C201.739998,297.480003 201.160004,297.859999 200.4,297.98 C199.639996,298.100001 199.180001,298.479997 199.02,299.12 L202.38,298.4 C202.540001,298.4 202.759999,298.44 203.04,298.52 C203.320001,298.6 203.859996,298.64 204.66,298.64 Z M165.3,262.16 C165.38,261.279996 165.260002,260.780001 164.94,260.66 C164.619998,260.539999 164.42,260.400001 164.34,260.24 C164.34,260.400001 164.439999,260.719998 164.64,261.2 C164.840001,261.680002 165.059999,261.999999 165.3,262.16 Z M172.62,269.12 L172.62,268.04 L170.82,267.56 C170.82,267.800001 170.86,268.079998 170.94,268.4 C171.02,268.720002 171.139999,268.959999 171.3,269.12 L172.62,269.12 Z M207.78,304.04 C207.619999,303.879999 207.380002,303.76 207.06,303.68 C206.739998,303.6 206.500001,303.56 206.34,303.56 L206.7,304.88 C206.860001,304.88 207.039999,304.780001 207.24,304.58 L207.78,304.04 Z M169.14,265.88 L168.42,264.08 L167.1,264.08 L166.14,264.92 C165.979999,264.92 165.740002,264.800001 165.42,264.56 C165.099998,264.319999 164.860001,264.2 164.7,264.2 C164.7,264.360001 164.759999,264.639998 164.88,265.04 C165.000001,265.440002 165.06,265.719999 165.06,265.88 L169.14,265.88 Z M200.94,301.64 L200.34,301.04 L199.98,301.4 L200.58,302 L200.94,301.64 Z M202.74,305.96 C202.579999,305.799999 202.280002,305.620001 201.84,305.42 C201.399998,305.219999 201.100001,305.12 200.94,305.12 C201.100001,305.520002 201.399998,305.799999 201.84,305.96 C202.280002,306.120001 202.579999,306.120001 202.74,305.96 Z M159.18,263.48 C159.019999,263.079998 158.760002,262.720002 158.4,262.4 C158.039998,262.079998 157.660002,261.92 157.26,261.92 L158.58,264.44 C158.820001,264.199999 158.98,264.000001 159.06,263.84 C159.14,263.679999 159.18,263.56 159.18,263.48 Z M196.86,302.24 C196.699999,302.400001 196.540001,302.639998 196.38,302.96 C196.3,303.120001 196.26,303.24 196.26,303.32 C196.420001,303.32 196.599999,303.200001 196.8,302.96 C197.000001,302.719999 197.020001,302.480001 196.86,302.24 Z M163.02,269.6 C162.619998,269.199998 162.140003,268.760002 161.58,268.28 C161.019997,267.799998 160.620001,267.440001 160.38,267.2 L160.38,269 L162.54,270.68 C162.62,270.6 162.68,270.500001 162.72,270.38 C162.76,270.259999 162.82,270.120001 162.9,269.96 C162.98,269.799999 163.02,269.68 163.02,269.6 Z M166.5,275.24 C166.5,274.839998 166.320002,274.500001 165.96,274.22 C165.599998,273.939999 165.300001,273.8 165.06,273.8 C164.899999,273.960001 164.740001,274.259998 164.58,274.7 C164.419999,275.140002 164.34,275.439999 164.34,275.6 L166.5,275.24 Z M193.5,304.04 C193.339999,303.879999 193.020002,303.680001 192.54,303.44 C192.059998,303.199999 191.500003,303.08 190.86,303.08 C190.86,303.480002 191.019998,303.779999 191.34,303.98 C191.660002,304.180001 191.899999,304.359999 192.06,304.52 L193.5,304.04 Z M195.42,308.48 C195.660001,308.079998 195.700001,307.640002 195.54,307.16 C195.379999,306.679998 195.3,306.200002 195.3,305.72 C195.139999,306.120002 195.06,306.579997 195.06,307.1 C195.06,307.620003 195.179999,308.079998 195.42,308.48 Z M163.38,276.56 L161.94,276.56 C161.94,276.960002 162.059999,277.219999 162.3,277.34 C162.540001,277.460001 162.739999,277.52 162.9,277.52 C162.98,277.52 163.099999,277.320002 163.26,276.92 C163.26,276.759999 163.3,276.64 163.38,276.56 Z M168.42,283.28 L163.14,280.28 C163.14,280.680002 163.339998,281.039998 163.74,281.36 C164.140002,281.680002 164.419999,282.039998 164.58,282.44 C164.419999,282.600001 164.200001,282.859998 163.92,283.22 C163.639999,283.580002 163.5,283.839999 163.5,284 C163.900002,284.240001 164.239999,284.200002 164.52,283.88 C164.800001,283.559998 165.179998,283.36 165.66,283.28 L168.42,283.28 Z M170.34,286.16 L165.78,286.16 L166.62,287.24 C167.820006,287.24 168.699997,287.160001 169.26,287 C169.820003,286.839999 170.179999,286.560002 170.34,286.16 Z M187.86,307.28 L187.86,305.48 L187.26,305.48 L187.26,307.28 L187.86,307.28 Z M180.54,300.68 L180.54,299.6 L179.94,299.6 L179.94,300.68 L180.54,300.68 Z M178.26,298.64 L177.66,298.4 L177.18,299.36 L177.78,299.6 L178.26,298.64 Z M172.26,293.24 C171.859998,292.839998 171.380003,292.64 170.82,292.64 C170.82,292.880001 170.879999,293.139999 171,293.42 C171.120001,293.700001 171.18,293.919999 171.18,294.08 C171.420001,294.08 171.619999,293.980001 171.78,293.78 C171.940001,293.579999 172.099999,293.400001 172.26,293.24 Z M168.06,290 L166.38,289.52 C165.979998,289.680001 165.640001,289.959998 165.36,290.36 C165.079999,290.760002 164.98,291.079999 165.06,291.32 L165.9,292.28 C166.940005,291.719997 167.659998,290.960005 168.06,290 Z M183.66,308.48 L183.18,310.28 C183.580002,310.119999 183.8,309.820002 183.84,309.38 C183.88,308.939998 183.820001,308.640001 183.66,308.48 Z M174.54,299.6 C174.379999,299.760001 174.100002,300.099997 173.7,300.62 C173.299998,301.140003 173.1,301.639998 173.1,302.12 C173.1,302.600002 173.279998,302.84 173.64,302.84 C174.000002,302.84 174.18,302.760001 174.18,302.6 C174.420001,302.359999 174.54,302.000002 174.54,301.52 L174.54,299.6 Z M172.62,300.32 L172.26,298.4 C171.859998,298.640001 171.500002,298.959998 171.18,299.36 C170.859998,299.760002 170.580001,300.039999 170.34,300.2 C170.740002,300.360001 171.179998,300.42 171.66,300.38 C172.140002,300.34 172.459999,300.32 172.62,300.32 Z M168.42,300.32 L168.42,299 C168.42,298.359997 168.100003,297.820002 167.46,297.38 C166.819997,296.939998 166.260002,296.640001 165.78,296.48 C165.78,296.880002 165.999998,297.359997 166.44,297.92 C166.880002,298.480003 167.299998,298.959998 167.7,299.36 C167.539999,299.520001 167.44,299.739999 167.4,300.02 C167.36,300.300001 167.34,300.519999 167.34,300.68 C167.660002,300.68 167.899999,300.64 168.06,300.56 C168.220001,300.48 168.34,300.4 168.42,300.32 Z M162.66,294.08 C162.66,293.919999 162.460002,293.720001 162.06,293.48 C161.659998,293.239999 161.380001,293.12 161.22,293.12 L161.22,294.56 C161.380001,294.56 161.619998,294.52 161.94,294.44 C162.260002,294.36 162.499999,294.240001 162.66,294.08 Z M176.1,308 C176.1,307.839999 176.06,307.620001 175.98,307.34 C175.9,307.059999 175.740001,306.92 175.5,306.92 C175.339999,307 175.140001,307.08 174.9,307.16 C174.419998,307.320001 174.100001,307.599998 173.94,308 L176.1,308 Z M159.3,294.08 L159.3,292.28 L158.7,292.28 L158.7,294.08 L159.3,294.08 Z M166.86,302.96 C166.86,302.559998 166.680002,302.220001 166.32,301.94 C165.959998,301.659999 165.700001,301.52 165.54,301.52 C165.299999,301.680001 165.22,301.979998 165.3,302.42 C165.38,302.860002 165.42,303.159999 165.42,303.32 C165.980003,303.32 166.339999,303.28 166.5,303.2 C166.660001,303.12 166.78,303.04 166.86,302.96 Z M166.14,314.6 C165.899999,314.199998 165.560002,314 165.12,314 L164.22,314 L166.14,314.6 Z" id="Rob" fill="#563C61"></path>
    </g>
</svg>